<svg xmlns="http://www.w3.org/2000/svg" width="1200" height="360" viewBox="0 0 1200 360">
<style>
.frame { fill: #09131d; }
.title { fill: #edf3fb; font: 800 24px Manrope, 'Segoe UI', sans-serif; }
.subtitle { fill: #a4b7cc; font: 14px Manrope, 'Segoe UI', sans-serif; }
.legend { fill: #a4b7cc; font: 13px Manrope, 'Segoe UI', sans-serif; }
.grid-line { stroke: rgba(186, 208, 233, 0.14); stroke-width: 1; }
.domain { stroke: rgba(186, 208, 233, 0.24); stroke-width: 1; }
.axis-label { fill: #6e8398; font: 11px 'IBM Plex Mono', monospace; }
.empty { fill: #a4b7cc; font: 15px Manrope, 'Segoe UI', sans-serif; }
</style>
<rect class="frame" x="0" y="0" width="1200" height="360" rx="18" />
<text class="title" x="28" y="34">Daily Codex Token Usage</text>
<text class="subtitle" x="28" y="58">Repo-local Codex input and output token totals aggregated by day.</text>
<circle cx="970" cy="30" r="5" fill="#5bd6a0" />
<text class="legend" x="984" y="34">Input tokens</text>
<circle cx="970" cy="50" r="5" fill="#ff6f91" />
<text class="legend" x="984" y="54">Output tokens</text>
<line class="grid-line" x1="78" x2="1176" y1="308.0" y2="308.0" />
<text class="axis-label" x="68" y="312.0" text-anchor="end">0</text>
<line class="grid-line" x1="78" x2="1176" y1="250.5" y2="250.5" />
<text class="axis-label" x="68" y="254.5" text-anchor="end">1,519,596,577</text>
<line class="grid-line" x1="78" x2="1176" y1="193.0" y2="193.0" />
<text class="axis-label" x="68" y="197.0" text-anchor="end">3,039,193,155</text>
<line class="grid-line" x1="78" x2="1176" y1="135.5" y2="135.5" />
<text class="axis-label" x="68" y="139.5" text-anchor="end">4,558,789,732</text>
<line class="grid-line" x1="78" x2="1176" y1="78.0" y2="78.0" />
<text class="axis-label" x="68" y="82.0" text-anchor="end">6,078,386,310</text>
<line class="domain" x1="78" x2="1176" y1="308" y2="308" />
<text class="axis-label" x="78.0" y="342" text-anchor="middle">2026-01-11</text>
<text class="axis-label" x="271.8" y="342" text-anchor="middle">2026-01-23</text>
<text class="axis-label" x="465.5" y="342" text-anchor="middle">2026-02-04</text>
<text class="axis-label" x="659.3" y="342" text-anchor="middle">2026-02-17</text>
<text class="axis-label" x="853.1" y="342" text-anchor="middle">2026-03-05</text>
<text class="axis-label" x="1046.8" y="342" text-anchor="middle">2026-03-17</text>
<text class="axis-label" x="1176.0" y="342" text-anchor="end">2026-03-25</text>
<polygon points="78.0,308 78.0,307.9 94.1,306.6 110.3,303.5 126.4,306.1 142.6,302.5 158.7,306.6 174.9,302.8 191.0,306.7 207.2,303.9 223.3,306.4 239.5,306.6 255.6,305.8 271.8,302.7 287.9,307.3 304.1,307.7 320.2,303.4 336.4,307.9 352.5,303.3 368.6,301.7 384.8,307.0 400.9,306.2 417.1,305.3 433.2,301.5 449.4,294.6 465.5,304.8 481.7,299.8 497.8,300.0 514.0,303.7 530.1,302.0 546.3,305.1 562.4,305.4 578.6,303.3 594.7,299.5 610.9,300.7 627.0,307.0 643.1,300.6 659.3,299.8 675.4,307.2 691.6,307.8 707.7,304.8 723.9,295.3 740.0,306.5 756.2,307.0 772.3,306.7 788.5,301.7 804.6,303.3 820.8,303.3 836.9,298.4 853.1,296.4 869.2,294.8 885.4,297.3 901.5,288.4 917.6,285.7 933.8,266.3 949.9,275.4 966.1,297.8 982.2,294.9 998.4,296.8 1014.5,301.9 1030.7,95.0 1046.8,302.5 1063.0,300.3 1079.1,293.1 1095.3,283.4 1111.4,295.8 1127.6,296.3 1143.7,300.1 1159.9,293.2 1176.0,298.2 1176.0,308" fill="#5bd6a0" opacity="0.1" />
<polyline points="78.0,307.9 94.1,306.6 110.3,303.5 126.4,306.1 142.6,302.5 158.7,306.6 174.9,302.8 191.0,306.7 207.2,303.9 223.3,306.4 239.5,306.6 255.6,305.8 271.8,302.7 287.9,307.3 304.1,307.7 320.2,303.4 336.4,307.9 352.5,303.3 368.6,301.7 384.8,307.0 400.9,306.2 417.1,305.3 433.2,301.5 449.4,294.6 465.5,304.8 481.7,299.8 497.8,300.0 514.0,303.7 530.1,302.0 546.3,305.1 562.4,305.4 578.6,303.3 594.7,299.5 610.9,300.7 627.0,307.0 643.1,300.6 659.3,299.8 675.4,307.2 691.6,307.8 707.7,304.8 723.9,295.3 740.0,306.5 756.2,307.0 772.3,306.7 788.5,301.7 804.6,303.3 820.8,303.3 836.9,298.4 853.1,296.4 869.2,294.8 885.4,297.3 901.5,288.4 917.6,285.7 933.8,266.3 949.9,275.4 966.1,297.8 982.2,294.9 998.4,296.8 1014.5,301.9 1030.7,95.0 1046.8,302.5 1063.0,300.3 1079.1,293.1 1095.3,283.4 1111.4,295.8 1127.6,296.3 1143.7,300.1 1159.9,293.2 1176.0,298.2" fill="none" stroke="#5bd6a0" stroke-width="3" stroke-linecap="round" stroke-linejoin="round" />
<polygon points="78.0,308 78.0,308.0 94.1,308.0 110.3,308.0 126.4,308.0 142.6,308.0 158.7,308.0 174.9,308.0 191.0,308.0 207.2,308.0 223.3,308.0 239.5,308.0 255.6,308.0 271.8,308.0 287.9,308.0 304.1,308.0 320.2,308.0 336.4,308.0 352.5,308.0 368.6,308.0 384.8,308.0 400.9,308.0 417.1,308.0 433.2,308.0 449.4,308.0 465.5,308.0 481.7,308.0 497.8,308.0 514.0,308.0 530.1,308.0 546.3,308.0 562.4,308.0 578.6,308.0 594.7,308.0 610.9,308.0 627.0,308.0 643.1,308.0 659.3,308.0 675.4,308.0 691.6,308.0 707.7,308.0 723.9,308.0 740.0,308.0 756.2,308.0 772.3,308.0 788.5,308.0 804.6,308.0 820.8,308.0 836.9,308.0 853.1,308.0 869.2,308.0 885.4,308.0 901.5,308.0 917.6,308.0 933.8,307.9 949.9,307.9 966.1,308.0 982.2,308.0 998.4,308.0 1014.5,308.0 1030.7,307.5 1046.8,308.0 1063.0,308.0 1079.1,308.0 1095.3,307.9 1111.4,308.0 1127.6,308.0 1143.7,308.0 1159.9,308.0 1176.0,308.0 1176.0,308" fill="#ff6f91" opacity="0.1" />
<polyline points="78.0,308.0 94.1,308.0 110.3,308.0 126.4,308.0 142.6,308.0 158.7,308.0 174.9,308.0 191.0,308.0 207.2,308.0 223.3,308.0 239.5,308.0 255.6,308.0 271.8,308.0 287.9,308.0 304.1,308.0 320.2,308.0 336.4,308.0 352.5,308.0 368.6,308.0 384.8,308.0 400.9,308.0 417.1,308.0 433.2,308.0 449.4,308.0 465.5,308.0 481.7,308.0 497.8,308.0 514.0,308.0 530.1,308.0 546.3,308.0 562.4,308.0 578.6,308.0 594.7,308.0 610.9,308.0 627.0,308.0 643.1,308.0 659.3,308.0 675.4,308.0 691.6,308.0 707.7,308.0 723.9,308.0 740.0,308.0 756.2,308.0 772.3,308.0 788.5,308.0 804.6,308.0 820.8,308.0 836.9,308.0 853.1,308.0 869.2,308.0 885.4,308.0 901.5,308.0 917.6,308.0 933.8,307.9 949.9,307.9 966.1,308.0 982.2,308.0 998.4,308.0 1014.5,308.0 1030.7,307.5 1046.8,308.0 1063.0,308.0 1079.1,308.0 1095.3,307.9 1111.4,308.0 1127.6,308.0 1143.7,308.0 1159.9,308.0 1176.0,308.0" fill="none" stroke="#ff6f91" stroke-width="3" stroke-linecap="round" stroke-linejoin="round" />
</svg>
