<svg xmlns="http://www.w3.org/2000/svg" width="1200" height="360" viewBox="0 0 1200 360">
<style>
.frame { fill: #09131d; }
.title { fill: #edf3fb; font: 800 24px Manrope, 'Segoe UI', sans-serif; }
.subtitle { fill: #a4b7cc; font: 14px Manrope, 'Segoe UI', sans-serif; }
.legend { fill: #a4b7cc; font: 13px Manrope, 'Segoe UI', sans-serif; }
.grid-line { stroke: rgba(186, 208, 233, 0.14); stroke-width: 1; }
.domain { stroke: rgba(186, 208, 233, 0.24); stroke-width: 1; }
.axis-label { fill: #6e8398; font: 11px 'IBM Plex Mono', monospace; }
.empty { fill: #a4b7cc; font: 15px Manrope, 'Segoe UI', sans-serif; }
</style>
<rect class="frame" x="0" y="0" width="1200" height="360" rx="18" />
<text class="title" x="28" y="34">End-of-Day LOC</text>
<text class="subtitle" x="28" y="58">Repository code LOC plus top-level __dp__.py, and total Python LOC under tests/.</text>
<circle cx="970" cy="30" r="5" fill="#7fd4ff" />
<text class="legend" x="984" y="34">Code LOC</text>
<circle cx="970" cy="50" r="5" fill="#ffd166" />
<text class="legend" x="984" y="54">Test LOC</text>
<line class="grid-line" x1="78" x2="1176" y1="308.0" y2="308.0" />
<text class="axis-label" x="68" y="312.0" text-anchor="end">0</text>
<line class="grid-line" x1="78" x2="1176" y1="250.5" y2="250.5" />
<text class="axis-label" x="68" y="254.5" text-anchor="end">10,510</text>
<line class="grid-line" x1="78" x2="1176" y1="193.0" y2="193.0" />
<text class="axis-label" x="68" y="197.0" text-anchor="end">21,020</text>
<line class="grid-line" x1="78" x2="1176" y1="135.5" y2="135.5" />
<text class="axis-label" x="68" y="139.5" text-anchor="end">31,529</text>
<line class="grid-line" x1="78" x2="1176" y1="78.0" y2="78.0" />
<text class="axis-label" x="68" y="82.0" text-anchor="end">42,039</text>
<line class="domain" x1="78" x2="1176" y1="308" y2="308" />
<text class="axis-label" x="78.0" y="342" text-anchor="middle">2025-09-03</text>
<text class="axis-label" x="263.4" y="342" text-anchor="middle">2025-09-16</text>
<text class="axis-label" x="448.8" y="342" text-anchor="middle">2025-10-07</text>
<text class="axis-label" x="634.1" y="342" text-anchor="middle">2026-01-21</text>
<text class="axis-label" x="819.5" y="342" text-anchor="middle">2026-02-17</text>
<text class="axis-label" x="1004.9" y="342" text-anchor="middle">2026-03-13</text>
<text class="axis-label" x="1176.0" y="342" text-anchor="end">2026-03-25</text>
<polygon points="78.0,308 78.0,306.3 92.3,304.0 106.5,302.9 120.8,301.2 135.0,298.7 149.3,298.4 163.6,296.6 177.8,296.4 192.1,293.6 206.3,291.7 220.6,289.9 234.9,288.1 249.1,287.9 263.4,287.5 277.6,279.2 291.9,283.1 306.2,281.8 320.4,278.3 334.7,276.7 348.9,276.6 363.2,274.5 377.5,274.5 391.7,273.9 406.0,273.8 420.2,273.7 434.5,274.8 448.8,274.2 463.0,273.9 477.3,273.6 491.5,273.6 505.8,271.9 520.1,271.3 534.3,271.0 548.6,268.1 562.8,266.9 577.1,264.6 591.4,258.8 605.6,255.7 619.9,255.9 634.1,257.3 648.4,254.7 662.6,254.6 676.9,250.7 691.2,249.3 705.4,252.7 719.7,248.3 733.9,232.7 748.2,218.4 762.5,220.1 776.7,190.9 791.0,183.1 805.2,182.0 819.5,181.7 833.8,181.3 848.0,168.2 862.3,137.9 876.5,144.4 890.8,149.5 905.1,144.3 919.3,143.4 933.6,139.1 947.8,114.6 962.1,124.5 976.4,115.2 990.6,113.8 1004.9,104.5 1019.1,103.6 1033.4,100.2 1047.7,95.0 1061.9,95.1 1076.2,102.2 1090.4,122.0 1104.7,107.7 1119.0,107.5 1133.2,105.9 1147.5,106.8 1161.7,113.7 1176.0,116.3 1176.0,308" fill="#7fd4ff" opacity="0.1" />
<polyline points="78.0,306.3 92.3,304.0 106.5,302.9 120.8,301.2 135.0,298.7 149.3,298.4 163.6,296.6 177.8,296.4 192.1,293.6 206.3,291.7 220.6,289.9 234.9,288.1 249.1,287.9 263.4,287.5 277.6,279.2 291.9,283.1 306.2,281.8 320.4,278.3 334.7,276.7 348.9,276.6 363.2,274.5 377.5,274.5 391.7,273.9 406.0,273.8 420.2,273.7 434.5,274.8 448.8,274.2 463.0,273.9 477.3,273.6 491.5,273.6 505.8,271.9 520.1,271.3 534.3,271.0 548.6,268.1 562.8,266.9 577.1,264.6 591.4,258.8 605.6,255.7 619.9,255.9 634.1,257.3 648.4,254.7 662.6,254.6 676.9,250.7 691.2,249.3 705.4,252.7 719.7,248.3 733.9,232.7 748.2,218.4 762.5,220.1 776.7,190.9 791.0,183.1 805.2,182.0 819.5,181.7 833.8,181.3 848.0,168.2 862.3,137.9 876.5,144.4 890.8,149.5 905.1,144.3 919.3,143.4 933.6,139.1 947.8,114.6 962.1,124.5 976.4,115.2 990.6,113.8 1004.9,104.5 1019.1,103.6 1033.4,100.2 1047.7,95.0 1061.9,95.1 1076.2,102.2 1090.4,122.0 1104.7,107.7 1119.0,107.5 1133.2,105.9 1147.5,106.8 1161.7,113.7 1176.0,116.3" fill="none" stroke="#7fd4ff" stroke-width="3" stroke-linecap="round" stroke-linejoin="round" />
<polygon points="78.0,308 78.0,308.0 92.3,308.0 106.5,308.0 120.8,308.0 135.0,308.0 149.3,307.9 163.6,307.9 177.8,307.9 192.1,307.8 206.3,307.8 220.6,307.8 234.9,307.7 249.1,307.7 263.4,307.7 277.6,307.3 291.9,307.3 306.2,307.3 320.4,306.4 334.7,305.9 348.9,304.7 363.2,302.9 377.5,302.1 391.7,302.2 406.0,302.1 420.2,302.1 434.5,302.1 448.8,301.8 463.0,301.5 477.3,301.1 491.5,300.9 505.8,300.1 520.1,300.0 534.3,300.7 548.6,294.9 562.8,294.0 577.1,291.0 591.4,288.8 605.6,288.7 619.9,288.3 634.1,288.1 648.4,287.5 662.6,285.7 676.9,284.6 691.2,283.8 705.4,282.9 719.7,282.5 733.9,276.2 748.2,271.7 762.5,271.7 776.7,270.6 791.0,270.5 805.2,270.2 819.5,270.2 833.8,270.2 848.0,269.9 862.3,268.6 876.5,271.9 890.8,271.4 905.1,270.2 919.3,270.2 933.6,270.2 947.8,268.7 962.1,268.7 976.4,267.9 990.6,267.9 1004.9,267.7 1019.1,267.7 1033.4,267.7 1047.7,267.3 1061.9,267.3 1076.2,267.3 1090.4,267.3 1104.7,267.1 1119.0,267.1 1133.2,266.7 1147.5,266.4 1161.7,265.4 1176.0,262.7 1176.0,308" fill="#ffd166" opacity="0.1" />
<polyline points="78.0,308.0 92.3,308.0 106.5,308.0 120.8,308.0 135.0,308.0 149.3,307.9 163.6,307.9 177.8,307.9 192.1,307.8 206.3,307.8 220.6,307.8 234.9,307.7 249.1,307.7 263.4,307.7 277.6,307.3 291.9,307.3 306.2,307.3 320.4,306.4 334.7,305.9 348.9,304.7 363.2,302.9 377.5,302.1 391.7,302.2 406.0,302.1 420.2,302.1 434.5,302.1 448.8,301.8 463.0,301.5 477.3,301.1 491.5,300.9 505.8,300.1 520.1,300.0 534.3,300.7 548.6,294.9 562.8,294.0 577.1,291.0 591.4,288.8 605.6,288.7 619.9,288.3 634.1,288.1 648.4,287.5 662.6,285.7 676.9,284.6 691.2,283.8 705.4,282.9 719.7,282.5 733.9,276.2 748.2,271.7 762.5,271.7 776.7,270.6 791.0,270.5 805.2,270.2 819.5,270.2 833.8,270.2 848.0,269.9 862.3,268.6 876.5,271.9 890.8,271.4 905.1,270.2 919.3,270.2 933.6,270.2 947.8,268.7 962.1,268.7 976.4,267.9 990.6,267.9 1004.9,267.7 1019.1,267.7 1033.4,267.7 1047.7,267.3 1061.9,267.3 1076.2,267.3 1090.4,267.3 1104.7,267.1 1119.0,267.1 1133.2,266.7 1147.5,266.4 1161.7,265.4 1176.0,262.7" fill="none" stroke="#ffd166" stroke-width="3" stroke-linecap="round" stroke-linejoin="round" />
</svg>
