<svg xmlns="http://www.w3.org/2000/svg" width="1200" height="360" viewBox="0 0 1200 360">
<style>
.frame { fill: #09131d; }
.title { fill: #edf3fb; font: 800 24px Manrope, 'Segoe UI', sans-serif; }
.subtitle { fill: #a4b7cc; font: 14px Manrope, 'Segoe UI', sans-serif; }
.legend { fill: #a4b7cc; font: 13px Manrope, 'Segoe UI', sans-serif; }
.grid-line { stroke: rgba(186, 208, 233, 0.14); stroke-width: 1; }
.domain { stroke: rgba(186, 208, 233, 0.24); stroke-width: 1; }
.axis-label { fill: #6e8398; font: 11px 'IBM Plex Mono', monospace; }
.empty { fill: #a4b7cc; font: 15px Manrope, 'Segoe UI', sans-serif; }
</style>
<rect class="frame" x="0" y="0" width="1200" height="360" rx="18" />
<text class="title" x="28" y="34">Daily Churn</text>
<text class="subtitle" x="28" y="58">Sum of insertions and deletions across commits that landed on each day.</text>
<circle cx="970" cy="30" r="5" fill="#ff8c69" />
<text class="legend" x="984" y="34">Lines changed</text>
<line class="grid-line" x1="78" x2="1176" y1="308.0" y2="308.0" />
<text class="axis-label" x="68" y="312.0" text-anchor="end">0</text>
<line class="grid-line" x1="78" x2="1176" y1="250.5" y2="250.5" />
<text class="axis-label" x="68" y="254.5" text-anchor="end">19,120</text>
<line class="grid-line" x1="78" x2="1176" y1="193.0" y2="193.0" />
<text class="axis-label" x="68" y="197.0" text-anchor="end">38,241</text>
<line class="grid-line" x1="78" x2="1176" y1="135.5" y2="135.5" />
<text class="axis-label" x="68" y="139.5" text-anchor="end">57,361</text>
<line class="grid-line" x1="78" x2="1176" y1="78.0" y2="78.0" />
<text class="axis-label" x="68" y="82.0" text-anchor="end">76,481</text>
<line class="domain" x1="78" x2="1176" y1="308" y2="308" />
<text class="axis-label" x="85.0" y="342" text-anchor="middle">2025-09-03</text>
<text class="axis-label" x="268.0" y="342" text-anchor="middle">2025-09-16</text>
<text class="axis-label" x="451.0" y="342" text-anchor="middle">2025-10-07</text>
<text class="axis-label" x="634.0" y="342" text-anchor="middle">2026-01-21</text>
<text class="axis-label" x="817.0" y="342" text-anchor="middle">2026-02-17</text>
<text class="axis-label" x="1000.0" y="342" text-anchor="middle">2026-03-13</text>
<text class="axis-label" x="1169.0" y="342" text-anchor="end">2026-03-25</text>
<rect x="80.3" y="297.4" width="9.6" height="10.6" rx="4" fill="#ff8c69" opacity="0.82" />
<rect x="94.3" y="301.5" width="9.6" height="6.5" rx="4" fill="#ff8c69" opacity="0.82" />
<rect x="108.4" y="302.0" width="9.6" height="6.0" rx="4" fill="#ff8c69" opacity="0.82" />
<rect x="122.5" y="304.9" width="9.6" height="3.1" rx="4" fill="#ff8c69" opacity="0.82" />
<rect x="136.6" y="304.4" width="9.6" height="3.6" rx="4" fill="#ff8c69" opacity="0.82" />
<rect x="150.6" y="301.1" width="9.6" height="6.9" rx="4" fill="#ff8c69" opacity="0.82" />
<rect x="164.7" y="306.0" width="9.6" height="2.0" rx="4" fill="#ff8c69" opacity="0.82" />
<rect x="178.8" y="307.7" width="9.6" height="0.3" rx="4" fill="#ff8c69" opacity="0.82" />
<rect x="192.9" y="301.6" width="9.6" height="6.4" rx="4" fill="#ff8c69" opacity="0.82" />
<rect x="206.9" y="303.7" width="9.6" height="4.3" rx="4" fill="#ff8c69" opacity="0.82" />
<rect x="221.0" y="279.8" width="9.6" height="28.2" rx="4" fill="#ff8c69" opacity="0.82" />
<rect x="235.1" y="300.1" width="9.6" height="7.9" rx="4" fill="#ff8c69" opacity="0.82" />
<rect x="249.2" y="305.2" width="9.6" height="2.8" rx="4" fill="#ff8c69" opacity="0.82" />
<rect x="263.3" y="298.8" width="9.6" height="9.2" rx="4" fill="#ff8c69" opacity="0.82" />
<rect x="277.3" y="291.7" width="9.6" height="16.3" rx="4" fill="#ff8c69" opacity="0.82" />
<rect x="291.4" y="293.7" width="9.6" height="14.3" rx="4" fill="#ff8c69" opacity="0.82" />
<rect x="305.5" y="295.4" width="9.6" height="12.6" rx="4" fill="#ff8c69" opacity="0.82" />
<rect x="319.6" y="301.0" width="9.6" height="7.0" rx="4" fill="#ff8c69" opacity="0.82" />
<rect x="333.6" y="292.7" width="9.6" height="15.3" rx="4" fill="#ff8c69" opacity="0.82" />
<rect x="347.7" y="299.7" width="9.6" height="8.3" rx="4" fill="#ff8c69" opacity="0.82" />
<rect x="361.8" y="292.9" width="9.6" height="15.1" rx="4" fill="#ff8c69" opacity="0.82" />
<rect x="375.9" y="305.6" width="9.6" height="2.4" rx="4" fill="#ff8c69" opacity="0.82" />
<rect x="389.9" y="305.9" width="9.6" height="2.1" rx="4" fill="#ff8c69" opacity="0.82" />
<rect x="404.0" y="307.8" width="9.6" height="0.2" rx="4" fill="#ff8c69" opacity="0.82" />
<rect x="418.1" y="303.1" width="9.6" height="4.9" rx="4" fill="#ff8c69" opacity="0.82" />
<rect x="432.2" y="304.8" width="9.6" height="3.2" rx="4" fill="#ff8c69" opacity="0.82" />
<rect x="446.3" y="305.6" width="9.6" height="2.4" rx="4" fill="#ff8c69" opacity="0.82" />
<rect x="460.3" y="307.5" width="9.6" height="0.5" rx="4" fill="#ff8c69" opacity="0.82" />
<rect x="474.4" y="306.6" width="9.6" height="1.4" rx="4" fill="#ff8c69" opacity="0.82" />
<rect x="488.5" y="307.8" width="9.6" height="0.2" rx="4" fill="#ff8c69" opacity="0.82" />
<rect x="502.6" y="304.9" width="9.6" height="3.1" rx="4" fill="#ff8c69" opacity="0.82" />
<rect x="516.6" y="307.2" width="9.6" height="0.8" rx="4" fill="#ff8c69" opacity="0.82" />
<rect x="530.7" y="294.9" width="9.6" height="13.1" rx="4" fill="#ff8c69" opacity="0.82" />
<rect x="544.8" y="284.9" width="9.6" height="23.1" rx="4" fill="#ff8c69" opacity="0.82" />
<rect x="558.9" y="292.9" width="9.6" height="15.1" rx="4" fill="#ff8c69" opacity="0.82" />
<rect x="572.9" y="298.8" width="9.6" height="9.2" rx="4" fill="#ff8c69" opacity="0.82" />
<rect x="587.0" y="231.2" width="9.6" height="76.8" rx="4" fill="#ff8c69" opacity="0.82" />
<rect x="601.1" y="286.0" width="9.6" height="22.0" rx="4" fill="#ff8c69" opacity="0.82" />
<rect x="615.2" y="275.2" width="9.6" height="32.8" rx="4" fill="#ff8c69" opacity="0.82" />
<rect x="629.3" y="273.5" width="9.6" height="34.5" rx="4" fill="#ff8c69" opacity="0.82" />
<rect x="643.3" y="303.2" width="9.6" height="4.8" rx="4" fill="#ff8c69" opacity="0.82" />
<rect x="657.4" y="281.9" width="9.6" height="26.1" rx="4" fill="#ff8c69" opacity="0.82" />
<rect x="671.5" y="298.1" width="9.6" height="9.9" rx="4" fill="#ff8c69" opacity="0.82" />
<rect x="685.6" y="298.3" width="9.6" height="9.7" rx="4" fill="#ff8c69" opacity="0.82" />
<rect x="699.6" y="285.2" width="9.6" height="22.8" rx="4" fill="#ff8c69" opacity="0.82" />
<rect x="713.7" y="298.0" width="9.6" height="10.0" rx="4" fill="#ff8c69" opacity="0.82" />
<rect x="727.8" y="282.0" width="9.6" height="26.0" rx="4" fill="#ff8c69" opacity="0.82" />
<rect x="741.9" y="262.1" width="9.6" height="45.9" rx="4" fill="#ff8c69" opacity="0.82" />
<rect x="755.9" y="304.6" width="9.6" height="3.4" rx="4" fill="#ff8c69" opacity="0.82" />
<rect x="770.0" y="278.2" width="9.6" height="29.8" rx="4" fill="#ff8c69" opacity="0.82" />
<rect x="784.1" y="257.3" width="9.6" height="50.7" rx="4" fill="#ff8c69" opacity="0.82" />
<rect x="798.2" y="281.1" width="9.6" height="26.9" rx="4" fill="#ff8c69" opacity="0.82" />
<rect x="812.3" y="302.2" width="9.6" height="5.8" rx="4" fill="#ff8c69" opacity="0.82" />
<rect x="826.3" y="303.5" width="9.6" height="4.5" rx="4" fill="#ff8c69" opacity="0.82" />
<rect x="840.4" y="297.8" width="9.6" height="10.2" rx="4" fill="#ff8c69" opacity="0.82" />
<rect x="854.5" y="242.5" width="9.6" height="65.5" rx="4" fill="#ff8c69" opacity="0.82" />
<rect x="868.6" y="269.3" width="9.6" height="38.7" rx="4" fill="#ff8c69" opacity="0.82" />
<rect x="882.6" y="248.9" width="9.6" height="59.1" rx="4" fill="#ff8c69" opacity="0.82" />
<rect x="896.7" y="287.5" width="9.6" height="20.5" rx="4" fill="#ff8c69" opacity="0.82" />
<rect x="910.8" y="304.3" width="9.6" height="3.7" rx="4" fill="#ff8c69" opacity="0.82" />
<rect x="924.9" y="298.9" width="9.6" height="9.1" rx="4" fill="#ff8c69" opacity="0.82" />
<rect x="938.9" y="240.8" width="9.6" height="67.2" rx="4" fill="#ff8c69" opacity="0.82" />
<rect x="953.0" y="195.0" width="9.6" height="113.0" rx="4" fill="#ff8c69" opacity="0.82" />
<rect x="967.1" y="221.3" width="9.6" height="86.7" rx="4" fill="#ff8c69" opacity="0.82" />
<rect x="981.2" y="269.2" width="9.6" height="38.8" rx="4" fill="#ff8c69" opacity="0.82" />
<rect x="995.3" y="260.1" width="9.6" height="47.9" rx="4" fill="#ff8c69" opacity="0.82" />
<rect x="1009.3" y="275.0" width="9.6" height="33.0" rx="4" fill="#ff8c69" opacity="0.82" />
<rect x="1023.4" y="295.8" width="9.6" height="12.2" rx="4" fill="#ff8c69" opacity="0.82" />
<rect x="1037.5" y="264.5" width="9.6" height="43.5" rx="4" fill="#ff8c69" opacity="0.82" />
<rect x="1051.6" y="306.0" width="9.6" height="2.0" rx="4" fill="#ff8c69" opacity="0.82" />
<rect x="1065.6" y="282.7" width="9.6" height="25.3" rx="4" fill="#ff8c69" opacity="0.82" />
<rect x="1079.7" y="266.2" width="9.6" height="41.8" rx="4" fill="#ff8c69" opacity="0.82" />
<rect x="1093.8" y="95.0" width="9.6" height="213.0" rx="4" fill="#ff8c69" opacity="0.82" />
<rect x="1107.9" y="272.1" width="9.6" height="35.9" rx="4" fill="#ff8c69" opacity="0.82" />
<rect x="1121.9" y="272.5" width="9.6" height="35.5" rx="4" fill="#ff8c69" opacity="0.82" />
<rect x="1136.0" y="288.0" width="9.6" height="20.0" rx="4" fill="#ff8c69" opacity="0.82" />
<rect x="1150.1" y="235.2" width="9.6" height="72.8" rx="4" fill="#ff8c69" opacity="0.82" />
<rect x="1164.2" y="290.1" width="9.6" height="17.9" rx="4" fill="#ff8c69" opacity="0.82" />
</svg>
