<svg xmlns="http://www.w3.org/2000/svg" width="1200" height="360" viewBox="0 0 1200 360">
<style>
.frame { fill: #09131d; }
.title { fill: #edf3fb; font: 800 24px Manrope, 'Segoe UI', sans-serif; }
.subtitle { fill: #a4b7cc; font: 14px Manrope, 'Segoe UI', sans-serif; }
.legend { fill: #a4b7cc; font: 13px Manrope, 'Segoe UI', sans-serif; }
.grid-line { stroke: rgba(186, 208, 233, 0.14); stroke-width: 1; }
.domain { stroke: rgba(186, 208, 233, 0.24); stroke-width: 1; }
.axis-label { fill: #6e8398; font: 11px 'IBM Plex Mono', monospace; }
.empty { fill: #a4b7cc; font: 15px Manrope, 'Segoe UI', sans-serif; }
</style>
<rect class="frame" x="0" y="0" width="1200" height="360" rx="18" />
<text class="title" x="28" y="34">End-of-Day LOC</text>
<text class="subtitle" x="28" y="58">Repository code LOC plus top-level __dp__.py, and total Python LOC under tests/.</text>
<circle cx="970" cy="30" r="5" fill="#7fd4ff" />
<text class="legend" x="984" y="34">Code LOC</text>
<circle cx="970" cy="50" r="5" fill="#ffd166" />
<text class="legend" x="984" y="54">Test LOC</text>
<line class="grid-line" x1="78" x2="1176" y1="308.0" y2="308.0" />
<text class="axis-label" x="68" y="312.0" text-anchor="end">0</text>
<line class="grid-line" x1="78" x2="1176" y1="250.5" y2="250.5" />
<text class="axis-label" x="68" y="254.5" text-anchor="end">90,891</text>
<line class="grid-line" x1="78" x2="1176" y1="193.0" y2="193.0" />
<text class="axis-label" x="68" y="197.0" text-anchor="end">181,782</text>
<line class="grid-line" x1="78" x2="1176" y1="135.5" y2="135.5" />
<text class="axis-label" x="68" y="139.5" text-anchor="end">272,673</text>
<line class="grid-line" x1="78" x2="1176" y1="78.0" y2="78.0" />
<text class="axis-label" x="68" y="82.0" text-anchor="end">363,564</text>
<line class="domain" x1="78" x2="1176" y1="308" y2="308" />
<text class="axis-label" x="78.0" y="342" text-anchor="middle">2022-08-09</text>
<text class="axis-label" x="261.1" y="342" text-anchor="middle">2023-03-21</text>
<text class="axis-label" x="444.3" y="342" text-anchor="middle">2023-10-21</text>
<text class="axis-label" x="627.4" y="342" text-anchor="middle">2024-05-27</text>
<text class="axis-label" x="810.6" y="342" text-anchor="middle">2024-12-28</text>
<text class="axis-label" x="993.7" y="342" text-anchor="middle">2025-08-03</text>
<text class="axis-label" x="1176.0" y="342" text-anchor="end">2026-03-25</text>
<polygon points="78.0,308 78.0,307.8 78.9,307.7 79.7,307.4 80.6,307.4 81.5,307.3 82.4,307.3 83.2,307.3 84.1,307.3 85.0,307.1 85.8,307.1 86.7,307.1 87.6,306.9 88.5,306.9 89.3,306.9 90.2,306.7 91.1,306.7 92.0,306.7 92.8,306.6 93.7,306.5 94.6,306.4 95.4,306.2 96.3,306.0 97.2,305.9 98.1,305.7 98.9,305.5 99.8,305.4 100.7,305.3 101.5,305.3 102.4,305.1 103.3,305.1 104.2,305.1 105.0,305.1 105.9,305.1 106.8,305.0 107.7,305.0 108.5,304.8 109.4,304.6 110.3,304.6 111.1,304.5 112.0,304.5 112.9,304.4 113.8,304.4 114.6,304.4 115.5,304.2 116.4,304.0 117.2,303.3 118.1,303.2 119.0,303.1 119.9,302.9 120.7,302.8 121.6,302.7 122.5,302.4 123.4,302.1 124.2,301.6 125.1,301.5 126.0,301.1 126.8,301.0 127.7,300.9 128.6,300.7 129.5,300.6 130.3,300.6 131.2,300.5 132.1,300.6 132.9,300.5 133.8,300.4 134.7,300.4 135.6,299.4 136.4,299.2 137.3,299.1 138.2,299.0 139.0,298.9 139.9,298.4 140.8,298.1 141.7,297.0 142.5,296.8 143.4,296.3 144.3,296.1 145.2,296.0 146.0,295.9 146.9,295.3 147.8,294.9 148.6,294.4 149.5,294.3 150.4,294.1 151.3,293.8 152.1,293.8 153.0,293.6 153.9,293.2 154.7,293.1 155.6,292.8 156.5,292.7 157.4,292.6 158.2,292.6 159.1,292.5 160.0,292.1 160.9,292.1 161.7,291.6 162.6,291.5 163.5,291.4 164.3,291.4 165.2,291.3 166.1,291.2 167.0,290.5 167.8,290.4 168.7,289.6 169.6,289.5 170.4,289.1 171.3,288.9 172.2,288.9 173.1,288.7 173.9,288.5 174.8,288.4 175.7,288.4 176.5,288.3 177.4,287.5 178.3,287.4 179.2,287.4 180.0,286.9 180.9,286.9 181.8,286.8 182.7,286.6 183.5,286.5 184.4,286.4 185.3,286.3 186.1,286.2 187.0,286.0 187.9,285.2 188.8,285.0 189.6,284.7 190.5,284.5 191.4,284.0 192.2,283.9 193.1,282.7 194.0,282.5 194.9,281.9 195.7,283.5 196.6,282.1 197.5,281.5 198.4,281.4 199.2,281.3 200.1,281.1 201.0,280.9 201.8,280.7 202.7,280.7 203.6,280.6 204.5,280.4 205.3,280.2 206.2,279.8 207.1,279.2 207.9,279.3 208.8,278.6 209.7,278.6 210.6,278.1 211.4,278.1 212.3,277.2 213.2,277.2 214.1,277.0 214.9,276.5 215.8,276.8 216.7,271.6 217.5,276.1 218.4,275.9 219.3,275.8 220.2,272.8 221.0,274.3 221.9,274.1 222.8,273.6 223.6,273.4 224.5,273.3 225.4,273.1 226.3,272.9 227.1,272.7 228.0,272.0 228.9,271.6 229.7,271.1 230.6,264.5 231.5,264.3 232.4,264.2 233.2,264.1 234.1,264.1 235.0,264.1 235.9,263.8 236.7,263.1 237.6,262.8 238.5,262.3 239.3,262.3 240.2,262.1 241.1,261.7 242.0,261.0 242.8,260.9 243.7,260.9 244.6,260.6 245.4,260.3 246.3,260.1 247.2,260.1 248.1,260.3 248.9,260.3 249.8,260.4 250.7,260.4 251.6,260.4 252.4,260.3 253.3,260.2 254.2,260.1 255.0,260.1 255.9,260.1 256.8,260.0 257.7,259.8 258.5,259.7 259.4,259.5 260.3,259.0 261.1,258.6 262.0,258.5 262.9,258.4 263.8,258.4 264.6,258.3 265.5,258.3 266.4,258.2 267.3,257.8 268.1,257.7 269.0,257.6 269.9,257.5 270.7,257.5 271.6,257.5 272.5,257.3 273.4,257.3 274.2,257.2 275.1,257.2 276.0,257.2 276.8,257.2 277.7,257.1 278.6,257.1 279.5,256.4 280.3,256.4 281.2,255.9 282.1,255.9 282.9,255.9 283.8,255.8 284.7,255.8 285.6,255.8 286.4,255.8 287.3,255.8 288.2,255.7 289.1,255.7 289.9,255.5 290.8,255.5 291.7,256.2 292.5,256.1 293.4,256.1 294.3,256.2 295.2,256.2 296.0,256.1 296.9,256.1 297.8,256.1 298.6,255.9 299.5,255.9 300.4,255.8 301.3,255.8 302.1,255.1 303.0,255.0 303.9,255.0 304.8,254.8 305.6,254.7 306.5,254.5 307.4,254.4 308.2,253.7 309.1,253.6 310.0,253.6 310.9,253.5 311.7,253.2 312.6,253.2 313.5,253.2 314.3,251.1 315.2,250.5 316.1,250.5 317.0,250.0 317.8,250.0 318.7,249.9 319.6,249.8 320.4,249.7 321.3,253.3 322.2,250.1 323.1,249.5 323.9,249.5 324.8,249.5 325.7,249.5 326.6,249.3 327.4,248.9 328.3,248.9 329.2,247.9 330.0,247.9 330.9,247.8 331.8,248.1 332.7,247.2 333.5,247.2 334.4,247.1 335.3,247.1 336.1,247.1 337.0,247.1 337.9,247.1 338.8,246.9 339.6,246.9 340.5,246.3 341.4,246.1 342.3,246.3 343.1,246.3 344.0,246.3 344.9,245.5 345.7,245.2 346.6,245.2 347.5,245.1 348.4,244.5 349.2,244.5 350.1,243.8 351.0,243.7 351.8,243.6 352.7,243.4 353.6,243.3 354.5,243.3 355.3,242.9 356.2,242.6 357.1,242.4 358.0,242.3 358.8,242.2 359.7,242.0 360.6,242.0 361.4,241.7 362.3,241.1 363.2,240.8 364.1,240.5 364.9,240.5 365.8,240.5 366.7,240.4 367.5,240.1 368.4,240.0 369.3,239.8 370.2,192.0 371.0,191.9 371.9,191.9 372.8,191.9 373.6,191.8 374.5,192.9 375.4,192.4 376.3,192.3 377.1,192.2 378.0,192.2 378.9,192.2 379.8,192.6 380.6,190.1 381.5,189.7 382.4,189.5 383.2,189.4 384.1,189.3 385.0,189.1 385.9,188.6 386.7,188.5 387.6,188.3 388.5,187.9 389.3,187.9 390.2,187.9 391.1,187.9 392.0,187.8 392.8,187.8 393.7,187.7 394.6,187.5 395.5,190.3 396.3,190.5 397.2,191.4 398.1,190.8 398.9,190.7 399.8,190.6 400.7,190.4 401.6,190.5 402.4,190.4 403.3,190.4 404.2,190.3 405.0,190.3 405.9,190.2 406.8,190.0 407.7,189.9 408.5,189.9 409.4,189.8 410.3,189.7 411.2,189.6 412.0,189.4 412.9,189.4 413.8,189.3 414.6,189.3 415.5,188.9 416.4,188.7 417.3,188.5 418.1,188.5 419.0,188.4 419.9,188.3 420.7,188.2 421.6,188.0 422.5,187.0 423.4,187.0 424.2,182.4 425.1,182.3 426.0,182.3 426.8,182.3 427.7,182.2 428.6,182.1 429.5,182.1 430.3,181.9 431.2,181.9 432.1,181.9 433.0,181.8 433.8,181.7 434.7,181.6 435.6,182.2 436.4,181.9 437.3,181.9 438.2,181.9 439.1,181.9 439.9,181.8 440.8,181.6 441.7,181.4 442.5,181.4 443.4,180.8 444.3,180.8 445.2,180.7 446.0,180.5 446.9,180.4 447.8,180.3 448.7,180.2 449.5,180.2 450.4,180.1 451.3,179.7 452.1,179.7 453.0,179.7 453.9,179.7 454.8,179.3 455.6,179.1 456.5,179.1 457.4,178.8 458.2,178.7 459.1,178.5 460.0,178.5 460.9,178.5 461.7,178.4 462.6,178.3 463.5,178.3 464.3,177.5 465.2,177.5 466.1,177.3 467.0,177.3 467.8,177.2 468.7,177.2 469.6,177.1 470.5,177.1 471.3,177.0 472.2,176.9 473.1,176.9 473.9,176.4 474.8,176.3 475.7,175.9 476.6,175.8 477.4,175.7 478.3,175.2 479.2,175.0 480.0,175.0 480.9,175.0 481.8,174.9 482.7,174.8 483.5,174.8 484.4,174.5 485.3,174.5 486.2,174.4 487.0,174.4 487.9,173.7 488.8,173.7 489.6,173.6 490.5,173.7 491.4,173.6 492.3,173.6 493.1,173.4 494.0,173.3 494.9,173.2 495.7,173.0 496.6,173.0 497.5,172.9 498.4,172.9 499.2,172.9 500.1,172.7 501.0,172.6 501.9,172.6 502.7,172.6 503.6,173.2 504.5,173.1 505.3,173.1 506.2,172.5 507.1,172.4 508.0,172.4 508.8,172.4 509.7,172.3 510.6,172.3 511.4,172.2 512.3,172.2 513.2,172.5 514.1,171.9 514.9,171.9 515.8,171.7 516.7,171.6 517.5,171.2 518.4,171.2 519.3,171.2 520.2,171.2 521.0,171.1 521.9,170.9 522.8,170.7 523.7,170.5 524.5,170.4 525.4,170.4 526.3,170.3 527.1,170.3 528.0,170.3 528.9,170.2 529.8,169.4 530.6,169.7 531.5,169.2 532.4,169.0 533.2,168.9 534.1,169.0 535.0,168.7 535.9,168.7 536.7,168.7 537.6,168.2 538.5,168.0 539.4,168.0 540.2,168.0 541.1,167.7 542.0,167.7 542.8,167.6 543.7,167.6 544.6,167.4 545.5,167.4 546.3,167.4 547.2,167.4 548.1,167.3 548.9,167.3 549.8,167.3 550.7,167.3 551.6,167.3 552.4,167.2 553.3,167.2 554.2,166.9 555.1,166.9 555.9,166.8 556.8,166.8 557.7,166.7 558.5,166.2 559.4,166.2 560.3,166.0 561.2,166.0 562.0,164.7 562.9,164.5 563.8,164.5 564.6,164.6 565.5,164.5 566.4,164.4 567.3,164.3 568.1,164.1 569.0,164.0 569.9,164.0 570.7,163.8 571.6,163.8 572.5,163.8 573.4,163.8 574.2,163.7 575.1,163.7 576.0,163.6 576.9,163.6 577.7,163.5 578.6,163.4 579.5,163.4 580.3,163.4 581.2,163.7 582.1,163.5 583.0,163.4 583.8,163.0 584.7,162.8 585.6,162.8 586.4,162.8 587.3,163.9 588.2,163.9 589.1,163.5 589.9,163.5 590.8,163.5 591.7,163.5 592.6,163.4 593.4,163.4 594.3,163.2 595.2,204.9 596.0,204.9 596.9,204.9 597.8,204.9 598.7,204.8 599.5,204.7 600.4,204.6 601.3,204.6 602.1,204.4 603.0,201.5 603.9,201.4 604.8,201.4 605.6,201.3 606.5,201.2 607.4,201.4 608.2,201.6 609.1,201.6 610.0,201.6 610.9,201.6 611.7,201.5 612.6,201.5 613.5,201.3 614.4,201.2 615.2,201.2 616.1,201.0 617.0,200.9 617.8,200.8 618.7,200.8 619.6,200.8 620.5,200.8 621.3,200.8 622.2,200.8 623.1,200.3 623.9,200.2 624.8,200.1 625.7,200.1 626.6,200.0 627.4,200.0 628.3,199.9 629.2,199.9 630.1,199.9 630.9,199.8 631.8,199.8 632.7,199.7 633.5,199.6 634.4,199.5 635.3,199.3 636.2,199.3 637.0,199.3 637.9,199.2 638.8,199.2 639.6,199.2 640.5,198.9 641.4,198.3 642.3,198.2 643.1,198.2 644.0,198.1 644.9,198.1 645.8,196.8 646.6,196.8 647.5,196.0 648.4,196.2 649.2,196.2 650.1,196.0 651.0,196.0 651.9,196.0 652.7,196.0 653.6,196.0 654.5,196.0 655.3,196.0 656.2,195.9 657.1,195.7 658.0,195.8 658.8,195.9 659.7,198.5 660.6,198.4 661.4,198.4 662.3,198.4 663.2,198.3 664.1,197.9 664.9,197.7 665.8,197.7 666.7,197.6 667.6,197.6 668.4,197.6 669.3,197.2 670.2,196.7 671.0,196.4 671.9,196.4 672.8,196.3 673.7,196.1 674.5,196.0 675.4,195.7 676.3,195.6 677.1,195.3 678.0,195.0 678.9,194.7 679.8,194.7 680.6,194.6 681.5,194.6 682.4,194.5 683.3,194.4 684.1,194.4 685.0,194.3 685.9,194.3 686.7,194.3 687.6,194.2 688.5,192.2 689.4,192.0 690.2,191.9 691.1,191.7 692.0,191.6 692.8,191.6 693.7,191.3 694.6,191.2 695.5,191.3 696.3,191.1 697.2,190.8 698.1,190.7 698.9,190.7 699.8,190.9 700.7,190.8 701.6,190.6 702.4,190.5 703.3,190.4 704.2,190.4 705.1,190.3 705.9,190.3 706.8,190.3 707.7,190.3 708.5,190.2 709.4,190.1 710.3,190.0 711.2,190.0 712.0,189.8 712.9,189.6 713.8,189.5 714.6,189.5 715.5,189.5 716.4,189.5 717.3,189.5 718.1,189.1 719.0,189.0 719.9,189.0 720.8,188.9 721.6,188.8 722.5,188.8 723.4,188.8 724.2,188.6 725.1,188.4 726.0,187.9 726.9,187.9 727.7,187.9 728.6,187.9 729.5,187.8 730.3,187.8 731.2,187.5 732.1,187.5 733.0,187.4 733.8,187.4 734.7,187.4 735.6,187.3 736.5,187.2 737.3,187.2 738.2,187.1 739.1,187.0 739.9,187.0 740.8,186.9 741.7,186.3 742.6,186.3 743.4,186.2 744.3,186.2 745.2,186.2 746.0,186.2 746.9,186.1 747.8,186.0 748.7,186.0 749.5,185.8 750.4,185.6 751.3,185.6 752.1,185.6 753.0,185.4 753.9,185.3 754.8,185.0 755.6,185.1 756.5,185.0 757.4,185.0 758.3,184.9 759.1,184.6 760.0,184.5 760.9,184.3 761.7,184.3 762.6,184.2 763.5,184.1 764.4,183.5 765.2,183.5 766.1,183.4 767.0,182.9 767.8,182.7 768.7,182.6 769.6,182.6 770.5,182.3 771.3,182.2 772.2,182.1 773.1,181.8 774.0,181.4 774.8,181.2 775.7,181.1 776.6,180.9 777.4,180.9 778.3,181.0 779.2,180.8 780.1,180.7 780.9,180.6 781.8,180.6 782.7,180.5 783.5,180.3 784.4,180.0 785.3,179.9 786.2,179.9 787.0,179.9 787.9,179.8 788.8,179.5 789.7,179.4 790.5,179.2 791.4,179.1 792.3,178.8 793.1,178.8 794.0,178.7 794.9,178.6 795.8,178.1 796.6,177.8 797.5,177.5 798.4,177.4 799.2,177.3 800.1,177.3 801.0,177.1 801.9,177.1 802.7,176.9 803.6,176.8 804.5,172.1 805.3,176.3 806.2,176.2 807.1,175.8 808.0,175.8 808.8,175.8 809.7,175.7 810.6,175.7 811.5,175.6 812.3,175.3 813.2,174.8 814.1,174.6 814.9,174.3 815.8,174.2 816.7,174.3 817.6,174.2 818.4,174.1 819.3,173.7 820.2,173.7 821.0,173.7 821.9,173.4 822.8,173.4 823.7,173.3 824.5,173.2 825.4,173.2 826.3,172.1 827.2,171.9 828.0,174.2 828.9,174.0 829.8,173.8 830.6,173.6 831.5,173.5 832.4,173.2 833.3,172.8 834.1,172.6 835.0,172.6 835.9,172.6 836.7,172.5 837.6,172.4 838.5,172.4 839.4,172.3 840.2,172.2 841.1,172.3 842.0,172.2 842.8,171.9 843.7,171.5 844.6,171.2 845.5,171.1 846.3,171.3 847.2,171.3 848.1,171.2 849.0,171.0 849.8,171.0 850.7,169.0 851.6,169.5 852.4,169.4 853.3,169.3 854.2,169.2 855.1,169.2 855.9,169.1 856.8,168.9 857.7,168.6 858.5,168.4 859.4,168.4 860.3,168.3 861.2,168.1 862.0,167.6 862.9,167.6 863.8,167.5 864.7,167.3 865.5,167.3 866.4,167.1 867.3,167.0 868.1,166.9 869.0,166.7 869.9,166.1 870.8,166.1 871.6,166.0 872.5,165.7 873.4,165.6 874.2,165.6 875.1,164.8 876.0,164.8 876.9,164.8 877.7,164.6 878.6,164.6 879.5,164.4 880.4,164.1 881.2,164.1 882.1,164.1 883.0,163.8 883.8,163.8 884.7,163.7 885.6,163.7 886.5,163.5 887.3,163.4 888.2,163.4 889.1,163.4 889.9,163.3 890.8,162.6 891.7,162.1 892.6,162.0 893.4,162.0 894.3,161.9 895.2,161.7 896.0,161.5 896.9,160.9 897.8,160.6 898.7,160.5 899.5,160.1 900.4,160.2 901.3,160.0 902.2,159.3 903.0,159.0 903.9,158.5 904.8,158.5 905.6,158.5 906.5,158.4 907.4,158.0 908.3,157.8 909.1,157.8 910.0,157.8 910.9,157.7 911.7,157.4 912.6,157.0 913.5,156.6 914.4,156.5 915.2,156.4 916.1,156.3 917.0,156.3 917.9,156.0 918.7,155.8 919.6,155.3 920.5,154.9 921.3,154.3 922.2,154.3 923.1,154.3 924.0,154.0 924.8,153.9 925.7,153.7 926.6,153.7 927.4,153.1 928.3,153.2 929.2,153.2 930.1,152.9 930.9,152.8 931.8,152.5 932.7,152.5 933.6,152.4 934.4,152.4 935.3,152.2 936.2,152.3 937.0,152.2 937.9,152.1 938.8,150.9 939.7,150.9 940.5,150.8 941.4,150.5 942.3,150.2 943.1,150.0 944.0,145.4 944.9,150.0 945.8,149.9 946.6,149.9 947.5,149.8 948.4,149.6 949.2,148.7 950.1,146.0 951.0,146.0 951.9,145.9 952.7,145.7 953.6,145.6 954.5,145.0 955.4,144.8 956.2,144.3 957.1,144.2 958.0,144.2 958.8,144.1 959.7,143.9 960.6,144.7 961.5,144.1 962.3,143.8 963.2,143.8 964.1,143.7 964.9,143.6 965.8,143.6 966.7,143.5 967.6,143.0 968.4,143.0 969.3,143.0 970.2,143.0 971.1,142.3 971.9,142.1 972.8,141.7 973.7,141.0 974.5,139.8 975.4,140.5 976.3,140.5 977.2,140.2 978.0,139.9 978.9,139.4 979.8,139.2 980.6,138.9 981.5,138.8 982.4,138.7 983.3,138.4 984.1,137.5 985.0,136.9 985.9,137.0 986.7,136.0 987.6,135.9 988.5,136.0 989.4,136.0 990.2,135.9 991.1,135.5 992.0,135.4 992.9,135.2 993.7,135.2 994.6,134.8 995.5,134.4 996.3,134.1 997.2,133.6 998.1,133.4 999.0,133.5 999.8,133.5 1000.7,133.4 1001.6,133.2 1002.4,133.0 1003.3,132.9 1004.2,132.9 1005.1,132.8 1005.9,132.8 1006.8,132.7 1007.7,132.1 1008.6,131.5 1009.4,131.2 1010.3,131.0 1011.2,130.9 1012.0,130.9 1012.9,130.6 1013.8,130.4 1014.7,130.1 1015.5,129.6 1016.4,129.3 1017.3,129.3 1018.1,129.3 1019.0,129.3 1019.9,307.8 1020.8,307.5 1021.6,307.4 1022.5,307.2 1023.4,306.9 1024.3,306.9 1025.1,128.5 1026.0,128.3 1026.9,306.3 1027.7,306.1 1028.6,305.9 1029.5,305.7 1030.4,305.7 1031.2,305.6 1032.1,304.7 1033.0,305.1 1033.8,305.0 1034.7,304.6 1035.6,304.4 1036.5,304.4 1037.3,304.1 1038.2,126.4 1039.1,304.1 1039.9,304.0 1040.8,126.2 1041.7,126.2 1042.6,126.1 1043.4,125.9 1044.3,125.9 1045.2,125.9 1046.1,125.7 1046.9,125.7 1047.8,125.7 1048.7,125.6 1049.5,304.1 1050.4,304.1 1051.3,124.5 1052.2,124.4 1053.0,303.8 1053.9,124.4 1054.8,124.1 1055.6,124.0 1056.5,123.3 1057.4,123.0 1058.3,122.9 1059.1,122.9 1060.0,122.9 1060.9,122.8 1061.8,122.7 1062.6,122.5 1063.5,122.0 1064.4,121.7 1065.2,121.7 1066.1,121.5 1067.0,121.4 1067.9,121.3 1068.7,121.2 1069.6,121.0 1070.5,121.0 1071.3,121.0 1072.2,120.8 1073.1,120.8 1074.0,120.7 1074.8,120.5 1075.7,120.4 1076.6,120.4 1077.5,120.4 1078.3,119.7 1079.2,119.5 1080.1,119.3 1080.9,119.1 1081.8,118.8 1082.7,118.8 1083.6,118.7 1084.4,118.5 1085.3,118.0 1086.2,117.6 1087.0,117.2 1087.9,117.0 1088.8,117.0 1089.7,116.8 1090.5,116.5 1091.4,116.2 1092.3,115.2 1093.1,115.1 1094.0,114.5 1094.9,114.4 1095.8,114.4 1096.6,114.3 1097.5,113.9 1098.4,113.4 1099.3,113.0 1100.1,112.4 1101.0,112.4 1101.9,112.4 1102.7,112.1 1103.6,111.9 1104.5,111.6 1105.4,111.6 1106.2,111.3 1107.1,111.2 1108.0,111.1 1108.8,110.9 1109.7,110.5 1110.6,110.3 1111.5,109.7 1112.3,109.6 1113.2,109.6 1114.1,109.5 1115.0,109.3 1115.8,108.9 1116.7,108.7 1117.6,108.7 1118.4,108.7 1119.3,108.6 1120.2,108.6 1121.1,108.4 1121.9,108.1 1122.8,108.1 1123.7,108.1 1124.5,108.0 1125.4,108.0 1126.3,108.0 1127.2,107.8 1128.0,107.4 1128.9,106.9 1129.8,106.9 1130.6,106.7 1131.5,106.7 1132.4,106.7 1133.3,105.9 1134.1,105.5 1135.0,104.9 1135.9,104.5 1136.8,104.3 1137.6,104.1 1138.5,104.0 1139.4,103.9 1140.2,103.6 1141.1,302.1 1142.0,103.5 1142.9,301.8 1143.7,103.1 1144.6,103.0 1145.5,102.7 1146.3,102.1 1147.2,95.5 1148.1,95.0 1149.0,299.3 1149.8,297.6 1150.7,297.8 1151.6,294.5 1152.5,293.6 1153.3,293.4 1154.2,293.4 1155.1,293.3 1155.9,291.8 1156.8,288.3 1157.7,289.1 1158.6,289.7 1159.4,289.1 1160.3,289.0 1161.2,288.5 1162.0,285.6 1162.9,286.8 1163.8,285.7 1164.7,285.5 1165.5,284.5 1166.4,284.4 1167.3,284.0 1168.2,283.4 1169.0,283.4 1169.9,284.2 1170.8,286.5 1171.6,284.8 1172.5,284.8 1173.4,284.6 1174.3,284.7 1175.1,285.0 1176.0,308.0 1176.0,308" fill="#7fd4ff" opacity="0.1" />
<polyline points="78.0,307.8 78.9,307.7 79.7,307.4 80.6,307.4 81.5,307.3 82.4,307.3 83.2,307.3 84.1,307.3 85.0,307.1 85.8,307.1 86.7,307.1 87.6,306.9 88.5,306.9 89.3,306.9 90.2,306.7 91.1,306.7 92.0,306.7 92.8,306.6 93.7,306.5 94.6,306.4 95.4,306.2 96.3,306.0 97.2,305.9 98.1,305.7 98.9,305.5 99.8,305.4 100.7,305.3 101.5,305.3 102.4,305.1 103.3,305.1 104.2,305.1 105.0,305.1 105.9,305.1 106.8,305.0 107.7,305.0 108.5,304.8 109.4,304.6 110.3,304.6 111.1,304.5 112.0,304.5 112.9,304.4 113.8,304.4 114.6,304.4 115.5,304.2 116.4,304.0 117.2,303.3 118.1,303.2 119.0,303.1 119.9,302.9 120.7,302.8 121.6,302.7 122.5,302.4 123.4,302.1 124.2,301.6 125.1,301.5 126.0,301.1 126.8,301.0 127.7,300.9 128.6,300.7 129.5,300.6 130.3,300.6 131.2,300.5 132.1,300.6 132.9,300.5 133.8,300.4 134.7,300.4 135.6,299.4 136.4,299.2 137.3,299.1 138.2,299.0 139.0,298.9 139.9,298.4 140.8,298.1 141.7,297.0 142.5,296.8 143.4,296.3 144.3,296.1 145.2,296.0 146.0,295.9 146.9,295.3 147.8,294.9 148.6,294.4 149.5,294.3 150.4,294.1 151.3,293.8 152.1,293.8 153.0,293.6 153.9,293.2 154.7,293.1 155.6,292.8 156.5,292.7 157.4,292.6 158.2,292.6 159.1,292.5 160.0,292.1 160.9,292.1 161.7,291.6 162.6,291.5 163.5,291.4 164.3,291.4 165.2,291.3 166.1,291.2 167.0,290.5 167.8,290.4 168.7,289.6 169.6,289.5 170.4,289.1 171.3,288.9 172.2,288.9 173.1,288.7 173.9,288.5 174.8,288.4 175.7,288.4 176.5,288.3 177.4,287.5 178.3,287.4 179.2,287.4 180.0,286.9 180.9,286.9 181.8,286.8 182.7,286.6 183.5,286.5 184.4,286.4 185.3,286.3 186.1,286.2 187.0,286.0 187.9,285.2 188.8,285.0 189.6,284.7 190.5,284.5 191.4,284.0 192.2,283.9 193.1,282.7 194.0,282.5 194.9,281.9 195.7,283.5 196.6,282.1 197.5,281.5 198.4,281.4 199.2,281.3 200.1,281.1 201.0,280.9 201.8,280.7 202.7,280.7 203.6,280.6 204.5,280.4 205.3,280.2 206.2,279.8 207.1,279.2 207.9,279.3 208.8,278.6 209.7,278.6 210.6,278.1 211.4,278.1 212.3,277.2 213.2,277.2 214.1,277.0 214.9,276.5 215.8,276.8 216.7,271.6 217.5,276.1 218.4,275.9 219.3,275.8 220.2,272.8 221.0,274.3 221.9,274.1 222.8,273.6 223.6,273.4 224.5,273.3 225.4,273.1 226.3,272.9 227.1,272.7 228.0,272.0 228.9,271.6 229.7,271.1 230.6,264.5 231.5,264.3 232.4,264.2 233.2,264.1 234.1,264.1 235.0,264.1 235.9,263.8 236.7,263.1 237.6,262.8 238.5,262.3 239.3,262.3 240.2,262.1 241.1,261.7 242.0,261.0 242.8,260.9 243.7,260.9 244.6,260.6 245.4,260.3 246.3,260.1 247.2,260.1 248.1,260.3 248.9,260.3 249.8,260.4 250.7,260.4 251.6,260.4 252.4,260.3 253.3,260.2 254.2,260.1 255.0,260.1 255.9,260.1 256.8,260.0 257.7,259.8 258.5,259.7 259.4,259.5 260.3,259.0 261.1,258.6 262.0,258.5 262.9,258.4 263.8,258.4 264.6,258.3 265.5,258.3 266.4,258.2 267.3,257.8 268.1,257.7 269.0,257.6 269.9,257.5 270.7,257.5 271.6,257.5 272.5,257.3 273.4,257.3 274.2,257.2 275.1,257.2 276.0,257.2 276.8,257.2 277.7,257.1 278.6,257.1 279.5,256.4 280.3,256.4 281.2,255.9 282.1,255.9 282.9,255.9 283.8,255.8 284.7,255.8 285.6,255.8 286.4,255.8 287.3,255.8 288.2,255.7 289.1,255.7 289.9,255.5 290.8,255.5 291.7,256.2 292.5,256.1 293.4,256.1 294.3,256.2 295.2,256.2 296.0,256.1 296.9,256.1 297.8,256.1 298.6,255.9 299.5,255.9 300.4,255.8 301.3,255.8 302.1,255.1 303.0,255.0 303.9,255.0 304.8,254.8 305.6,254.7 306.5,254.5 307.4,254.4 308.2,253.7 309.1,253.6 310.0,253.6 310.9,253.5 311.7,253.2 312.6,253.2 313.5,253.2 314.3,251.1 315.2,250.5 316.1,250.5 317.0,250.0 317.8,250.0 318.7,249.9 319.6,249.8 320.4,249.7 321.3,253.3 322.2,250.1 323.1,249.5 323.9,249.5 324.8,249.5 325.7,249.5 326.6,249.3 327.4,248.9 328.3,248.9 329.2,247.9 330.0,247.9 330.9,247.8 331.8,248.1 332.7,247.2 333.5,247.2 334.4,247.1 335.3,247.1 336.1,247.1 337.0,247.1 337.9,247.1 338.8,246.9 339.6,246.9 340.5,246.3 341.4,246.1 342.3,246.3 343.1,246.3 344.0,246.3 344.9,245.5 345.7,245.2 346.6,245.2 347.5,245.1 348.4,244.5 349.2,244.5 350.1,243.8 351.0,243.7 351.8,243.6 352.7,243.4 353.6,243.3 354.5,243.3 355.3,242.9 356.2,242.6 357.1,242.4 358.0,242.3 358.8,242.2 359.7,242.0 360.6,242.0 361.4,241.7 362.3,241.1 363.2,240.8 364.1,240.5 364.9,240.5 365.8,240.5 366.7,240.4 367.5,240.1 368.4,240.0 369.3,239.8 370.2,192.0 371.0,191.9 371.9,191.9 372.8,191.9 373.6,191.8 374.5,192.9 375.4,192.4 376.3,192.3 377.1,192.2 378.0,192.2 378.9,192.2 379.8,192.6 380.6,190.1 381.5,189.7 382.4,189.5 383.2,189.4 384.1,189.3 385.0,189.1 385.9,188.6 386.7,188.5 387.6,188.3 388.5,187.9 389.3,187.9 390.2,187.9 391.1,187.9 392.0,187.8 392.8,187.8 393.7,187.7 394.6,187.5 395.5,190.3 396.3,190.5 397.2,191.4 398.1,190.8 398.9,190.7 399.8,190.6 400.7,190.4 401.6,190.5 402.4,190.4 403.3,190.4 404.2,190.3 405.0,190.3 405.9,190.2 406.8,190.0 407.7,189.9 408.5,189.9 409.4,189.8 410.3,189.7 411.2,189.6 412.0,189.4 412.9,189.4 413.8,189.3 414.6,189.3 415.5,188.9 416.4,188.7 417.3,188.5 418.1,188.5 419.0,188.4 419.9,188.3 420.7,188.2 421.6,188.0 422.5,187.0 423.4,187.0 424.2,182.4 425.1,182.3 426.0,182.3 426.8,182.3 427.7,182.2 428.6,182.1 429.5,182.1 430.3,181.9 431.2,181.9 432.1,181.9 433.0,181.8 433.8,181.7 434.7,181.6 435.6,182.2 436.4,181.9 437.3,181.9 438.2,181.9 439.1,181.9 439.9,181.8 440.8,181.6 441.7,181.4 442.5,181.4 443.4,180.8 444.3,180.8 445.2,180.7 446.0,180.5 446.9,180.4 447.8,180.3 448.7,180.2 449.5,180.2 450.4,180.1 451.3,179.7 452.1,179.7 453.0,179.7 453.9,179.7 454.8,179.3 455.6,179.1 456.5,179.1 457.4,178.8 458.2,178.7 459.1,178.5 460.0,178.5 460.9,178.5 461.7,178.4 462.6,178.3 463.5,178.3 464.3,177.5 465.2,177.5 466.1,177.3 467.0,177.3 467.8,177.2 468.7,177.2 469.6,177.1 470.5,177.1 471.3,177.0 472.2,176.9 473.1,176.9 473.9,176.4 474.8,176.3 475.7,175.9 476.6,175.8 477.4,175.7 478.3,175.2 479.2,175.0 480.0,175.0 480.9,175.0 481.8,174.9 482.7,174.8 483.5,174.8 484.4,174.5 485.3,174.5 486.2,174.4 487.0,174.4 487.9,173.7 488.8,173.7 489.6,173.6 490.5,173.7 491.4,173.6 492.3,173.6 493.1,173.4 494.0,173.3 494.9,173.2 495.7,173.0 496.6,173.0 497.5,172.9 498.4,172.9 499.2,172.9 500.1,172.7 501.0,172.6 501.9,172.6 502.7,172.6 503.6,173.2 504.5,173.1 505.3,173.1 506.2,172.5 507.1,172.4 508.0,172.4 508.8,172.4 509.7,172.3 510.6,172.3 511.4,172.2 512.3,172.2 513.2,172.5 514.1,171.9 514.9,171.9 515.8,171.7 516.7,171.6 517.5,171.2 518.4,171.2 519.3,171.2 520.2,171.2 521.0,171.1 521.9,170.9 522.8,170.7 523.7,170.5 524.5,170.4 525.4,170.4 526.3,170.3 527.1,170.3 528.0,170.3 528.9,170.2 529.8,169.4 530.6,169.7 531.5,169.2 532.4,169.0 533.2,168.9 534.1,169.0 535.0,168.7 535.9,168.7 536.7,168.7 537.6,168.2 538.5,168.0 539.4,168.0 540.2,168.0 541.1,167.7 542.0,167.7 542.8,167.6 543.7,167.6 544.6,167.4 545.5,167.4 546.3,167.4 547.2,167.4 548.1,167.3 548.9,167.3 549.8,167.3 550.7,167.3 551.6,167.3 552.4,167.2 553.3,167.2 554.2,166.9 555.1,166.9 555.9,166.8 556.8,166.8 557.7,166.7 558.5,166.2 559.4,166.2 560.3,166.0 561.2,166.0 562.0,164.7 562.9,164.5 563.8,164.5 564.6,164.6 565.5,164.5 566.4,164.4 567.3,164.3 568.1,164.1 569.0,164.0 569.9,164.0 570.7,163.8 571.6,163.8 572.5,163.8 573.4,163.8 574.2,163.7 575.1,163.7 576.0,163.6 576.9,163.6 577.7,163.5 578.6,163.4 579.5,163.4 580.3,163.4 581.2,163.7 582.1,163.5 583.0,163.4 583.8,163.0 584.7,162.8 585.6,162.8 586.4,162.8 587.3,163.9 588.2,163.9 589.1,163.5 589.9,163.5 590.8,163.5 591.7,163.5 592.6,163.4 593.4,163.4 594.3,163.2 595.2,204.9 596.0,204.9 596.9,204.9 597.8,204.9 598.7,204.8 599.5,204.7 600.4,204.6 601.3,204.6 602.1,204.4 603.0,201.5 603.9,201.4 604.8,201.4 605.6,201.3 606.5,201.2 607.4,201.4 608.2,201.6 609.1,201.6 610.0,201.6 610.9,201.6 611.7,201.5 612.6,201.5 613.5,201.3 614.4,201.2 615.2,201.2 616.1,201.0 617.0,200.9 617.8,200.8 618.7,200.8 619.6,200.8 620.5,200.8 621.3,200.8 622.2,200.8 623.1,200.3 623.9,200.2 624.8,200.1 625.7,200.1 626.6,200.0 627.4,200.0 628.3,199.9 629.2,199.9 630.1,199.9 630.9,199.8 631.8,199.8 632.7,199.7 633.5,199.6 634.4,199.5 635.3,199.3 636.2,199.3 637.0,199.3 637.9,199.2 638.8,199.2 639.6,199.2 640.5,198.9 641.4,198.3 642.3,198.2 643.1,198.2 644.0,198.1 644.9,198.1 645.8,196.8 646.6,196.8 647.5,196.0 648.4,196.2 649.2,196.2 650.1,196.0 651.0,196.0 651.9,196.0 652.7,196.0 653.6,196.0 654.5,196.0 655.3,196.0 656.2,195.9 657.1,195.7 658.0,195.8 658.8,195.9 659.7,198.5 660.6,198.4 661.4,198.4 662.3,198.4 663.2,198.3 664.1,197.9 664.9,197.7 665.8,197.7 666.7,197.6 667.6,197.6 668.4,197.6 669.3,197.2 670.2,196.7 671.0,196.4 671.9,196.4 672.8,196.3 673.7,196.1 674.5,196.0 675.4,195.7 676.3,195.6 677.1,195.3 678.0,195.0 678.9,194.7 679.8,194.7 680.6,194.6 681.5,194.6 682.4,194.5 683.3,194.4 684.1,194.4 685.0,194.3 685.9,194.3 686.7,194.3 687.6,194.2 688.5,192.2 689.4,192.0 690.2,191.9 691.1,191.7 692.0,191.6 692.8,191.6 693.7,191.3 694.6,191.2 695.5,191.3 696.3,191.1 697.2,190.8 698.1,190.7 698.9,190.7 699.8,190.9 700.7,190.8 701.6,190.6 702.4,190.5 703.3,190.4 704.2,190.4 705.1,190.3 705.9,190.3 706.8,190.3 707.7,190.3 708.5,190.2 709.4,190.1 710.3,190.0 711.2,190.0 712.0,189.8 712.9,189.6 713.8,189.5 714.6,189.5 715.5,189.5 716.4,189.5 717.3,189.5 718.1,189.1 719.0,189.0 719.9,189.0 720.8,188.9 721.6,188.8 722.5,188.8 723.4,188.8 724.2,188.6 725.1,188.4 726.0,187.9 726.9,187.9 727.7,187.9 728.6,187.9 729.5,187.8 730.3,187.8 731.2,187.5 732.1,187.5 733.0,187.4 733.8,187.4 734.7,187.4 735.6,187.3 736.5,187.2 737.3,187.2 738.2,187.1 739.1,187.0 739.9,187.0 740.8,186.9 741.7,186.3 742.6,186.3 743.4,186.2 744.3,186.2 745.2,186.2 746.0,186.2 746.9,186.1 747.8,186.0 748.7,186.0 749.5,185.8 750.4,185.6 751.3,185.6 752.1,185.6 753.0,185.4 753.9,185.3 754.8,185.0 755.6,185.1 756.5,185.0 757.4,185.0 758.3,184.9 759.1,184.6 760.0,184.5 760.9,184.3 761.7,184.3 762.6,184.2 763.5,184.1 764.4,183.5 765.2,183.5 766.1,183.4 767.0,182.9 767.8,182.7 768.7,182.6 769.6,182.6 770.5,182.3 771.3,182.2 772.2,182.1 773.1,181.8 774.0,181.4 774.8,181.2 775.7,181.1 776.6,180.9 777.4,180.9 778.3,181.0 779.2,180.8 780.1,180.7 780.9,180.6 781.8,180.6 782.7,180.5 783.5,180.3 784.4,180.0 785.3,179.9 786.2,179.9 787.0,179.9 787.9,179.8 788.8,179.5 789.7,179.4 790.5,179.2 791.4,179.1 792.3,178.8 793.1,178.8 794.0,178.7 794.9,178.6 795.8,178.1 796.6,177.8 797.5,177.5 798.4,177.4 799.2,177.3 800.1,177.3 801.0,177.1 801.9,177.1 802.7,176.9 803.6,176.8 804.5,172.1 805.3,176.3 806.2,176.2 807.1,175.8 808.0,175.8 808.8,175.8 809.7,175.7 810.6,175.7 811.5,175.6 812.3,175.3 813.2,174.8 814.1,174.6 814.9,174.3 815.8,174.2 816.7,174.3 817.6,174.2 818.4,174.1 819.3,173.7 820.2,173.7 821.0,173.7 821.9,173.4 822.8,173.4 823.7,173.3 824.5,173.2 825.4,173.2 826.3,172.1 827.2,171.9 828.0,174.2 828.9,174.0 829.8,173.8 830.6,173.6 831.5,173.5 832.4,173.2 833.3,172.8 834.1,172.6 835.0,172.6 835.9,172.6 836.7,172.5 837.6,172.4 838.5,172.4 839.4,172.3 840.2,172.2 841.1,172.3 842.0,172.2 842.8,171.9 843.7,171.5 844.6,171.2 845.5,171.1 846.3,171.3 847.2,171.3 848.1,171.2 849.0,171.0 849.8,171.0 850.7,169.0 851.6,169.5 852.4,169.4 853.3,169.3 854.2,169.2 855.1,169.2 855.9,169.1 856.8,168.9 857.7,168.6 858.5,168.4 859.4,168.4 860.3,168.3 861.2,168.1 862.0,167.6 862.9,167.6 863.8,167.5 864.7,167.3 865.5,167.3 866.4,167.1 867.3,167.0 868.1,166.9 869.0,166.7 869.9,166.1 870.8,166.1 871.6,166.0 872.5,165.7 873.4,165.6 874.2,165.6 875.1,164.8 876.0,164.8 876.9,164.8 877.7,164.6 878.6,164.6 879.5,164.4 880.4,164.1 881.2,164.1 882.1,164.1 883.0,163.8 883.8,163.8 884.7,163.7 885.6,163.7 886.5,163.5 887.3,163.4 888.2,163.4 889.1,163.4 889.9,163.3 890.8,162.6 891.7,162.1 892.6,162.0 893.4,162.0 894.3,161.9 895.2,161.7 896.0,161.5 896.9,160.9 897.8,160.6 898.7,160.5 899.5,160.1 900.4,160.2 901.3,160.0 902.2,159.3 903.0,159.0 903.9,158.5 904.8,158.5 905.6,158.5 906.5,158.4 907.4,158.0 908.3,157.8 909.1,157.8 910.0,157.8 910.9,157.7 911.7,157.4 912.6,157.0 913.5,156.6 914.4,156.5 915.2,156.4 916.1,156.3 917.0,156.3 917.9,156.0 918.7,155.8 919.6,155.3 920.5,154.9 921.3,154.3 922.2,154.3 923.1,154.3 924.0,154.0 924.8,153.9 925.7,153.7 926.6,153.7 927.4,153.1 928.3,153.2 929.2,153.2 930.1,152.9 930.9,152.8 931.8,152.5 932.7,152.5 933.6,152.4 934.4,152.4 935.3,152.2 936.2,152.3 937.0,152.2 937.9,152.1 938.8,150.9 939.7,150.9 940.5,150.8 941.4,150.5 942.3,150.2 943.1,150.0 944.0,145.4 944.9,150.0 945.8,149.9 946.6,149.9 947.5,149.8 948.4,149.6 949.2,148.7 950.1,146.0 951.0,146.0 951.9,145.9 952.7,145.7 953.6,145.6 954.5,145.0 955.4,144.8 956.2,144.3 957.1,144.2 958.0,144.2 958.8,144.1 959.7,143.9 960.6,144.7 961.5,144.1 962.3,143.8 963.2,143.8 964.1,143.7 964.9,143.6 965.8,143.6 966.7,143.5 967.6,143.0 968.4,143.0 969.3,143.0 970.2,143.0 971.1,142.3 971.9,142.1 972.8,141.7 973.7,141.0 974.5,139.8 975.4,140.5 976.3,140.5 977.2,140.2 978.0,139.9 978.9,139.4 979.8,139.2 980.6,138.9 981.5,138.8 982.4,138.7 983.3,138.4 984.1,137.5 985.0,136.9 985.9,137.0 986.7,136.0 987.6,135.9 988.5,136.0 989.4,136.0 990.2,135.9 991.1,135.5 992.0,135.4 992.9,135.2 993.7,135.2 994.6,134.8 995.5,134.4 996.3,134.1 997.2,133.6 998.1,133.4 999.0,133.5 999.8,133.5 1000.7,133.4 1001.6,133.2 1002.4,133.0 1003.3,132.9 1004.2,132.9 1005.1,132.8 1005.9,132.8 1006.8,132.7 1007.7,132.1 1008.6,131.5 1009.4,131.2 1010.3,131.0 1011.2,130.9 1012.0,130.9 1012.9,130.6 1013.8,130.4 1014.7,130.1 1015.5,129.6 1016.4,129.3 1017.3,129.3 1018.1,129.3 1019.0,129.3 1019.9,307.8 1020.8,307.5 1021.6,307.4 1022.5,307.2 1023.4,306.9 1024.3,306.9 1025.1,128.5 1026.0,128.3 1026.9,306.3 1027.7,306.1 1028.6,305.9 1029.5,305.7 1030.4,305.7 1031.2,305.6 1032.1,304.7 1033.0,305.1 1033.8,305.0 1034.7,304.6 1035.6,304.4 1036.5,304.4 1037.3,304.1 1038.2,126.4 1039.1,304.1 1039.9,304.0 1040.8,126.2 1041.7,126.2 1042.6,126.1 1043.4,125.9 1044.3,125.9 1045.2,125.9 1046.1,125.7 1046.9,125.7 1047.8,125.7 1048.7,125.6 1049.5,304.1 1050.4,304.1 1051.3,124.5 1052.2,124.4 1053.0,303.8 1053.9,124.4 1054.8,124.1 1055.6,124.0 1056.5,123.3 1057.4,123.0 1058.3,122.9 1059.1,122.9 1060.0,122.9 1060.9,122.8 1061.8,122.7 1062.6,122.5 1063.5,122.0 1064.4,121.7 1065.2,121.7 1066.1,121.5 1067.0,121.4 1067.9,121.3 1068.7,121.2 1069.6,121.0 1070.5,121.0 1071.3,121.0 1072.2,120.8 1073.1,120.8 1074.0,120.7 1074.8,120.5 1075.7,120.4 1076.6,120.4 1077.5,120.4 1078.3,119.7 1079.2,119.5 1080.1,119.3 1080.9,119.1 1081.8,118.8 1082.7,118.8 1083.6,118.7 1084.4,118.5 1085.3,118.0 1086.2,117.6 1087.0,117.2 1087.9,117.0 1088.8,117.0 1089.7,116.8 1090.5,116.5 1091.4,116.2 1092.3,115.2 1093.1,115.1 1094.0,114.5 1094.9,114.4 1095.8,114.4 1096.6,114.3 1097.5,113.9 1098.4,113.4 1099.3,113.0 1100.1,112.4 1101.0,112.4 1101.9,112.4 1102.7,112.1 1103.6,111.9 1104.5,111.6 1105.4,111.6 1106.2,111.3 1107.1,111.2 1108.0,111.1 1108.8,110.9 1109.7,110.5 1110.6,110.3 1111.5,109.7 1112.3,109.6 1113.2,109.6 1114.1,109.5 1115.0,109.3 1115.8,108.9 1116.7,108.7 1117.6,108.7 1118.4,108.7 1119.3,108.6 1120.2,108.6 1121.1,108.4 1121.9,108.1 1122.8,108.1 1123.7,108.1 1124.5,108.0 1125.4,108.0 1126.3,108.0 1127.2,107.8 1128.0,107.4 1128.9,106.9 1129.8,106.9 1130.6,106.7 1131.5,106.7 1132.4,106.7 1133.3,105.9 1134.1,105.5 1135.0,104.9 1135.9,104.5 1136.8,104.3 1137.6,104.1 1138.5,104.0 1139.4,103.9 1140.2,103.6 1141.1,302.1 1142.0,103.5 1142.9,301.8 1143.7,103.1 1144.6,103.0 1145.5,102.7 1146.3,102.1 1147.2,95.5 1148.1,95.0 1149.0,299.3 1149.8,297.6 1150.7,297.8 1151.6,294.5 1152.5,293.6 1153.3,293.4 1154.2,293.4 1155.1,293.3 1155.9,291.8 1156.8,288.3 1157.7,289.1 1158.6,289.7 1159.4,289.1 1160.3,289.0 1161.2,288.5 1162.0,285.6 1162.9,286.8 1163.8,285.7 1164.7,285.5 1165.5,284.5 1166.4,284.4 1167.3,284.0 1168.2,283.4 1169.0,283.4 1169.9,284.2 1170.8,286.5 1171.6,284.8 1172.5,284.8 1173.4,284.6 1174.3,284.7 1175.1,285.0 1176.0,308.0" fill="none" stroke="#7fd4ff" stroke-width="3" stroke-linecap="round" stroke-linejoin="round" />
<polygon points="78.0,308 78.0,308.0 78.9,308.0 79.7,308.0 80.6,308.0 81.5,308.0 82.4,308.0 83.2,308.0 84.1,308.0 85.0,308.0 85.8,308.0 86.7,308.0 87.6,308.0 88.5,308.0 89.3,308.0 90.2,308.0 91.1,308.0 92.0,308.0 92.8,308.0 93.7,308.0 94.6,308.0 95.4,308.0 96.3,308.0 97.2,308.0 98.1,308.0 98.9,308.0 99.8,308.0 100.7,308.0 101.5,308.0 102.4,308.0 103.3,308.0 104.2,308.0 105.0,308.0 105.9,308.0 106.8,308.0 107.7,308.0 108.5,308.0 109.4,308.0 110.3,308.0 111.1,308.0 112.0,308.0 112.9,308.0 113.8,308.0 114.6,308.0 115.5,308.0 116.4,308.0 117.2,308.0 118.1,308.0 119.0,308.0 119.9,308.0 120.7,308.0 121.6,308.0 122.5,308.0 123.4,308.0 124.2,308.0 125.1,308.0 126.0,308.0 126.8,308.0 127.7,308.0 128.6,308.0 129.5,308.0 130.3,308.0 131.2,308.0 132.1,308.0 132.9,308.0 133.8,308.0 134.7,308.0 135.6,308.0 136.4,308.0 137.3,308.0 138.2,308.0 139.0,308.0 139.9,308.0 140.8,308.0 141.7,308.0 142.5,308.0 143.4,308.0 144.3,308.0 145.2,308.0 146.0,308.0 146.9,308.0 147.8,308.0 148.6,308.0 149.5,308.0 150.4,308.0 151.3,308.0 152.1,308.0 153.0,308.0 153.9,308.0 154.7,308.0 155.6,308.0 156.5,308.0 157.4,308.0 158.2,308.0 159.1,308.0 160.0,308.0 160.9,308.0 161.7,308.0 162.6,308.0 163.5,308.0 164.3,308.0 165.2,308.0 166.1,308.0 167.0,308.0 167.8,308.0 168.7,308.0 169.6,308.0 170.4,308.0 171.3,308.0 172.2,308.0 173.1,308.0 173.9,308.0 174.8,308.0 175.7,308.0 176.5,308.0 177.4,308.0 178.3,308.0 179.2,308.0 180.0,308.0 180.9,308.0 181.8,308.0 182.7,308.0 183.5,308.0 184.4,308.0 185.3,308.0 186.1,308.0 187.0,308.0 187.9,308.0 188.8,308.0 189.6,308.0 190.5,308.0 191.4,308.0 192.2,308.0 193.1,308.0 194.0,308.0 194.9,308.0 195.7,308.0 196.6,308.0 197.5,308.0 198.4,308.0 199.2,308.0 200.1,308.0 201.0,308.0 201.8,308.0 202.7,308.0 203.6,308.0 204.5,308.0 205.3,308.0 206.2,308.0 207.1,308.0 207.9,308.0 208.8,308.0 209.7,308.0 210.6,308.0 211.4,308.0 212.3,308.0 213.2,308.0 214.1,308.0 214.9,308.0 215.8,308.0 216.7,308.0 217.5,308.0 218.4,308.0 219.3,308.0 220.2,308.0 221.0,308.0 221.9,308.0 222.8,308.0 223.6,308.0 224.5,308.0 225.4,308.0 226.3,308.0 227.1,308.0 228.0,308.0 228.9,308.0 229.7,308.0 230.6,308.0 231.5,308.0 232.4,308.0 233.2,308.0 234.1,308.0 235.0,308.0 235.9,308.0 236.7,308.0 237.6,308.0 238.5,308.0 239.3,308.0 240.2,308.0 241.1,308.0 242.0,308.0 242.8,308.0 243.7,308.0 244.6,308.0 245.4,308.0 246.3,308.0 247.2,308.0 248.1,308.0 248.9,308.0 249.8,308.0 250.7,308.0 251.6,308.0 252.4,308.0 253.3,308.0 254.2,308.0 255.0,308.0 255.9,308.0 256.8,308.0 257.7,308.0 258.5,308.0 259.4,308.0 260.3,308.0 261.1,308.0 262.0,308.0 262.9,308.0 263.8,308.0 264.6,308.0 265.5,308.0 266.4,308.0 267.3,308.0 268.1,308.0 269.0,308.0 269.9,308.0 270.7,308.0 271.6,308.0 272.5,308.0 273.4,308.0 274.2,308.0 275.1,308.0 276.0,308.0 276.8,308.0 277.7,308.0 278.6,308.0 279.5,308.0 280.3,308.0 281.2,308.0 282.1,308.0 282.9,308.0 283.8,308.0 284.7,308.0 285.6,308.0 286.4,308.0 287.3,308.0 288.2,308.0 289.1,308.0 289.9,308.0 290.8,308.0 291.7,308.0 292.5,308.0 293.4,308.0 294.3,308.0 295.2,308.0 296.0,308.0 296.9,308.0 297.8,308.0 298.6,308.0 299.5,308.0 300.4,308.0 301.3,308.0 302.1,308.0 303.0,308.0 303.9,308.0 304.8,308.0 305.6,308.0 306.5,308.0 307.4,308.0 308.2,308.0 309.1,308.0 310.0,308.0 310.9,308.0 311.7,308.0 312.6,308.0 313.5,308.0 314.3,308.0 315.2,308.0 316.1,308.0 317.0,308.0 317.8,308.0 318.7,308.0 319.6,308.0 320.4,308.0 321.3,308.0 322.2,308.0 323.1,308.0 323.9,308.0 324.8,308.0 325.7,308.0 326.6,308.0 327.4,308.0 328.3,308.0 329.2,308.0 330.0,308.0 330.9,308.0 331.8,308.0 332.7,308.0 333.5,308.0 334.4,308.0 335.3,308.0 336.1,308.0 337.0,308.0 337.9,308.0 338.8,308.0 339.6,308.0 340.5,308.0 341.4,308.0 342.3,308.0 343.1,308.0 344.0,308.0 344.9,308.0 345.7,308.0 346.6,308.0 347.5,308.0 348.4,308.0 349.2,308.0 350.1,308.0 351.0,308.0 351.8,308.0 352.7,308.0 353.6,308.0 354.5,308.0 355.3,308.0 356.2,308.0 357.1,308.0 358.0,308.0 358.8,308.0 359.7,308.0 360.6,308.0 361.4,308.0 362.3,308.0 363.2,308.0 364.1,308.0 364.9,308.0 365.8,308.0 366.7,308.0 367.5,308.0 368.4,308.0 369.3,308.0 370.2,308.0 371.0,308.0 371.9,308.0 372.8,308.0 373.6,308.0 374.5,308.0 375.4,308.0 376.3,308.0 377.1,308.0 378.0,308.0 378.9,308.0 379.8,308.0 380.6,308.0 381.5,308.0 382.4,308.0 383.2,308.0 384.1,308.0 385.0,308.0 385.9,308.0 386.7,308.0 387.6,308.0 388.5,308.0 389.3,308.0 390.2,308.0 391.1,308.0 392.0,308.0 392.8,308.0 393.7,308.0 394.6,308.0 395.5,308.0 396.3,308.0 397.2,308.0 398.1,308.0 398.9,308.0 399.8,308.0 400.7,308.0 401.6,308.0 402.4,308.0 403.3,308.0 404.2,308.0 405.0,308.0 405.9,308.0 406.8,308.0 407.7,308.0 408.5,308.0 409.4,308.0 410.3,308.0 411.2,308.0 412.0,308.0 412.9,308.0 413.8,308.0 414.6,308.0 415.5,308.0 416.4,308.0 417.3,308.0 418.1,308.0 419.0,308.0 419.9,308.0 420.7,308.0 421.6,308.0 422.5,308.0 423.4,308.0 424.2,308.0 425.1,308.0 426.0,308.0 426.8,308.0 427.7,308.0 428.6,308.0 429.5,308.0 430.3,308.0 431.2,308.0 432.1,308.0 433.0,308.0 433.8,308.0 434.7,308.0 435.6,308.0 436.4,308.0 437.3,308.0 438.2,308.0 439.1,308.0 439.9,308.0 440.8,308.0 441.7,308.0 442.5,308.0 443.4,308.0 444.3,308.0 445.2,308.0 446.0,308.0 446.9,308.0 447.8,308.0 448.7,308.0 449.5,308.0 450.4,308.0 451.3,308.0 452.1,308.0 453.0,308.0 453.9,308.0 454.8,308.0 455.6,308.0 456.5,308.0 457.4,308.0 458.2,308.0 459.1,308.0 460.0,308.0 460.9,308.0 461.7,308.0 462.6,308.0 463.5,308.0 464.3,308.0 465.2,308.0 466.1,308.0 467.0,308.0 467.8,308.0 468.7,308.0 469.6,308.0 470.5,308.0 471.3,308.0 472.2,308.0 473.1,308.0 473.9,308.0 474.8,308.0 475.7,308.0 476.6,308.0 477.4,308.0 478.3,308.0 479.2,308.0 480.0,308.0 480.9,308.0 481.8,308.0 482.7,308.0 483.5,308.0 484.4,308.0 485.3,308.0 486.2,308.0 487.0,308.0 487.9,308.0 488.8,308.0 489.6,308.0 490.5,308.0 491.4,308.0 492.3,308.0 493.1,308.0 494.0,308.0 494.9,308.0 495.7,308.0 496.6,308.0 497.5,308.0 498.4,308.0 499.2,308.0 500.1,308.0 501.0,308.0 501.9,308.0 502.7,308.0 503.6,308.0 504.5,308.0 505.3,308.0 506.2,308.0 507.1,308.0 508.0,308.0 508.8,308.0 509.7,308.0 510.6,308.0 511.4,308.0 512.3,308.0 513.2,308.0 514.1,308.0 514.9,308.0 515.8,308.0 516.7,308.0 517.5,308.0 518.4,308.0 519.3,308.0 520.2,308.0 521.0,308.0 521.9,308.0 522.8,308.0 523.7,308.0 524.5,308.0 525.4,308.0 526.3,308.0 527.1,308.0 528.0,308.0 528.9,308.0 529.8,308.0 530.6,308.0 531.5,308.0 532.4,308.0 533.2,308.0 534.1,308.0 535.0,308.0 535.9,308.0 536.7,308.0 537.6,308.0 538.5,308.0 539.4,308.0 540.2,308.0 541.1,308.0 542.0,308.0 542.8,308.0 543.7,308.0 544.6,308.0 545.5,308.0 546.3,308.0 547.2,308.0 548.1,308.0 548.9,308.0 549.8,308.0 550.7,308.0 551.6,308.0 552.4,308.0 553.3,308.0 554.2,308.0 555.1,308.0 555.9,308.0 556.8,308.0 557.7,308.0 558.5,308.0 559.4,308.0 560.3,308.0 561.2,308.0 562.0,308.0 562.9,308.0 563.8,308.0 564.6,308.0 565.5,308.0 566.4,308.0 567.3,308.0 568.1,308.0 569.0,308.0 569.9,308.0 570.7,308.0 571.6,308.0 572.5,308.0 573.4,308.0 574.2,308.0 575.1,308.0 576.0,308.0 576.9,308.0 577.7,308.0 578.6,308.0 579.5,308.0 580.3,308.0 581.2,308.0 582.1,308.0 583.0,308.0 583.8,308.0 584.7,308.0 585.6,308.0 586.4,308.0 587.3,308.0 588.2,308.0 589.1,308.0 589.9,308.0 590.8,308.0 591.7,308.0 592.6,308.0 593.4,308.0 594.3,308.0 595.2,308.0 596.0,308.0 596.9,308.0 597.8,308.0 598.7,308.0 599.5,308.0 600.4,308.0 601.3,308.0 602.1,308.0 603.0,308.0 603.9,308.0 604.8,308.0 605.6,308.0 606.5,308.0 607.4,308.0 608.2,308.0 609.1,308.0 610.0,308.0 610.9,308.0 611.7,308.0 612.6,308.0 613.5,308.0 614.4,308.0 615.2,308.0 616.1,308.0 617.0,308.0 617.8,308.0 618.7,308.0 619.6,308.0 620.5,308.0 621.3,308.0 622.2,308.0 623.1,308.0 623.9,308.0 624.8,308.0 625.7,308.0 626.6,308.0 627.4,308.0 628.3,308.0 629.2,308.0 630.1,308.0 630.9,308.0 631.8,308.0 632.7,308.0 633.5,308.0 634.4,308.0 635.3,308.0 636.2,308.0 637.0,308.0 637.9,308.0 638.8,308.0 639.6,308.0 640.5,308.0 641.4,308.0 642.3,308.0 643.1,308.0 644.0,308.0 644.9,308.0 645.8,308.0 646.6,308.0 647.5,308.0 648.4,308.0 649.2,308.0 650.1,308.0 651.0,308.0 651.9,308.0 652.7,308.0 653.6,308.0 654.5,308.0 655.3,308.0 656.2,308.0 657.1,308.0 658.0,308.0 658.8,308.0 659.7,308.0 660.6,308.0 661.4,308.0 662.3,308.0 663.2,308.0 664.1,308.0 664.9,308.0 665.8,308.0 666.7,308.0 667.6,308.0 668.4,308.0 669.3,308.0 670.2,308.0 671.0,308.0 671.9,308.0 672.8,308.0 673.7,308.0 674.5,308.0 675.4,308.0 676.3,308.0 677.1,308.0 678.0,308.0 678.9,308.0 679.8,308.0 680.6,308.0 681.5,308.0 682.4,308.0 683.3,308.0 684.1,308.0 685.0,308.0 685.9,308.0 686.7,308.0 687.6,308.0 688.5,308.0 689.4,308.0 690.2,308.0 691.1,308.0 692.0,308.0 692.8,308.0 693.7,308.0 694.6,308.0 695.5,308.0 696.3,308.0 697.2,308.0 698.1,308.0 698.9,308.0 699.8,308.0 700.7,308.0 701.6,308.0 702.4,308.0 703.3,308.0 704.2,308.0 705.1,308.0 705.9,308.0 706.8,308.0 707.7,308.0 708.5,308.0 709.4,308.0 710.3,308.0 711.2,308.0 712.0,308.0 712.9,308.0 713.8,308.0 714.6,308.0 715.5,308.0 716.4,308.0 717.3,308.0 718.1,308.0 719.0,308.0 719.9,308.0 720.8,308.0 721.6,308.0 722.5,308.0 723.4,308.0 724.2,308.0 725.1,308.0 726.0,308.0 726.9,308.0 727.7,308.0 728.6,308.0 729.5,308.0 730.3,308.0 731.2,308.0 732.1,308.0 733.0,308.0 733.8,308.0 734.7,308.0 735.6,308.0 736.5,308.0 737.3,308.0 738.2,308.0 739.1,308.0 739.9,308.0 740.8,308.0 741.7,308.0 742.6,308.0 743.4,308.0 744.3,308.0 745.2,308.0 746.0,308.0 746.9,308.0 747.8,308.0 748.7,308.0 749.5,308.0 750.4,308.0 751.3,308.0 752.1,308.0 753.0,308.0 753.9,308.0 754.8,308.0 755.6,308.0 756.5,308.0 757.4,308.0 758.3,308.0 759.1,308.0 760.0,308.0 760.9,308.0 761.7,308.0 762.6,308.0 763.5,308.0 764.4,308.0 765.2,308.0 766.1,308.0 767.0,308.0 767.8,308.0 768.7,308.0 769.6,308.0 770.5,308.0 771.3,308.0 772.2,308.0 773.1,308.0 774.0,308.0 774.8,308.0 775.7,308.0 776.6,308.0 777.4,308.0 778.3,308.0 779.2,308.0 780.1,308.0 780.9,308.0 781.8,308.0 782.7,308.0 783.5,308.0 784.4,308.0 785.3,308.0 786.2,308.0 787.0,308.0 787.9,308.0 788.8,308.0 789.7,308.0 790.5,308.0 791.4,308.0 792.3,308.0 793.1,308.0 794.0,308.0 794.9,308.0 795.8,308.0 796.6,308.0 797.5,308.0 798.4,308.0 799.2,308.0 800.1,308.0 801.0,308.0 801.9,308.0 802.7,308.0 803.6,308.0 804.5,308.0 805.3,308.0 806.2,308.0 807.1,308.0 808.0,308.0 808.8,308.0 809.7,308.0 810.6,308.0 811.5,308.0 812.3,308.0 813.2,308.0 814.1,308.0 814.9,308.0 815.8,308.0 816.7,308.0 817.6,308.0 818.4,308.0 819.3,308.0 820.2,308.0 821.0,308.0 821.9,308.0 822.8,308.0 823.7,308.0 824.5,308.0 825.4,308.0 826.3,308.0 827.2,308.0 828.0,308.0 828.9,308.0 829.8,308.0 830.6,308.0 831.5,308.0 832.4,308.0 833.3,308.0 834.1,308.0 835.0,308.0 835.9,308.0 836.7,308.0 837.6,308.0 838.5,308.0 839.4,308.0 840.2,308.0 841.1,308.0 842.0,308.0 842.8,308.0 843.7,308.0 844.6,308.0 845.5,308.0 846.3,308.0 847.2,308.0 848.1,308.0 849.0,308.0 849.8,308.0 850.7,308.0 851.6,308.0 852.4,308.0 853.3,308.0 854.2,308.0 855.1,308.0 855.9,308.0 856.8,308.0 857.7,308.0 858.5,308.0 859.4,308.0 860.3,308.0 861.2,308.0 862.0,308.0 862.9,308.0 863.8,308.0 864.7,308.0 865.5,308.0 866.4,308.0 867.3,308.0 868.1,308.0 869.0,308.0 869.9,308.0 870.8,308.0 871.6,308.0 872.5,308.0 873.4,308.0 874.2,308.0 875.1,308.0 876.0,308.0 876.9,308.0 877.7,308.0 878.6,308.0 879.5,308.0 880.4,308.0 881.2,308.0 882.1,308.0 883.0,308.0 883.8,308.0 884.7,308.0 885.6,308.0 886.5,308.0 887.3,308.0 888.2,308.0 889.1,308.0 889.9,308.0 890.8,308.0 891.7,308.0 892.6,308.0 893.4,308.0 894.3,308.0 895.2,308.0 896.0,308.0 896.9,308.0 897.8,308.0 898.7,308.0 899.5,308.0 900.4,308.0 901.3,308.0 902.2,308.0 903.0,308.0 903.9,308.0 904.8,308.0 905.6,308.0 906.5,308.0 907.4,308.0 908.3,308.0 909.1,308.0 910.0,308.0 910.9,308.0 911.7,308.0 912.6,308.0 913.5,308.0 914.4,308.0 915.2,308.0 916.1,308.0 917.0,308.0 917.9,308.0 918.7,308.0 919.6,308.0 920.5,308.0 921.3,308.0 922.2,308.0 923.1,308.0 924.0,308.0 924.8,308.0 925.7,308.0 926.6,308.0 927.4,308.0 928.3,308.0 929.2,308.0 930.1,308.0 930.9,308.0 931.8,308.0 932.7,308.0 933.6,308.0 934.4,308.0 935.3,308.0 936.2,308.0 937.0,308.0 937.9,308.0 938.8,308.0 939.7,308.0 940.5,308.0 941.4,308.0 942.3,308.0 943.1,308.0 944.0,308.0 944.9,308.0 945.8,308.0 946.6,308.0 947.5,308.0 948.4,308.0 949.2,308.0 950.1,308.0 951.0,308.0 951.9,308.0 952.7,308.0 953.6,308.0 954.5,308.0 955.4,308.0 956.2,308.0 957.1,308.0 958.0,308.0 958.8,308.0 959.7,308.0 960.6,308.0 961.5,308.0 962.3,308.0 963.2,308.0 964.1,308.0 964.9,308.0 965.8,308.0 966.7,308.0 967.6,308.0 968.4,308.0 969.3,308.0 970.2,308.0 971.1,308.0 971.9,308.0 972.8,308.0 973.7,308.0 974.5,308.0 975.4,308.0 976.3,308.0 977.2,308.0 978.0,308.0 978.9,308.0 979.8,308.0 980.6,308.0 981.5,308.0 982.4,308.0 983.3,308.0 984.1,308.0 985.0,308.0 985.9,308.0 986.7,308.0 987.6,308.0 988.5,308.0 989.4,308.0 990.2,308.0 991.1,308.0 992.0,308.0 992.9,308.0 993.7,308.0 994.6,308.0 995.5,308.0 996.3,308.0 997.2,308.0 998.1,308.0 999.0,308.0 999.8,308.0 1000.7,308.0 1001.6,308.0 1002.4,308.0 1003.3,308.0 1004.2,308.0 1005.1,308.0 1005.9,308.0 1006.8,308.0 1007.7,308.0 1008.6,308.0 1009.4,308.0 1010.3,308.0 1011.2,308.0 1012.0,308.0 1012.9,308.0 1013.8,308.0 1014.7,308.0 1015.5,308.0 1016.4,308.0 1017.3,308.0 1018.1,308.0 1019.0,308.0 1019.9,308.0 1020.8,308.0 1021.6,308.0 1022.5,308.0 1023.4,308.0 1024.3,308.0 1025.1,308.0 1026.0,308.0 1026.9,308.0 1027.7,308.0 1028.6,308.0 1029.5,308.0 1030.4,308.0 1031.2,308.0 1032.1,307.9 1033.0,307.9 1033.8,307.9 1034.7,307.8 1035.6,307.8 1036.5,307.6 1037.3,307.4 1038.2,308.0 1039.1,307.3 1039.9,307.3 1040.8,308.0 1041.7,308.0 1042.6,308.0 1043.4,308.0 1044.3,308.0 1045.2,308.0 1046.1,308.0 1046.9,308.0 1047.8,308.0 1048.7,308.0 1049.5,307.3 1050.4,307.3 1051.3,308.0 1052.2,308.0 1053.0,307.1 1053.9,308.0 1054.8,308.0 1055.6,308.0 1056.5,308.0 1057.4,308.0 1058.3,308.0 1059.1,308.0 1060.0,308.0 1060.9,308.0 1061.8,308.0 1062.6,308.0 1063.5,308.0 1064.4,308.0 1065.2,308.0 1066.1,308.0 1067.0,308.0 1067.9,308.0 1068.7,308.0 1069.6,308.0 1070.5,308.0 1071.3,308.0 1072.2,308.0 1073.1,308.0 1074.0,308.0 1074.8,308.0 1075.7,308.0 1076.6,308.0 1077.5,308.0 1078.3,308.0 1079.2,308.0 1080.1,308.0 1080.9,308.0 1081.8,308.0 1082.7,308.0 1083.6,308.0 1084.4,308.0 1085.3,308.0 1086.2,308.0 1087.0,308.0 1087.9,308.0 1088.8,308.0 1089.7,308.0 1090.5,308.0 1091.4,308.0 1092.3,308.0 1093.1,308.0 1094.0,308.0 1094.9,308.0 1095.8,308.0 1096.6,308.0 1097.5,308.0 1098.4,308.0 1099.3,308.0 1100.1,308.0 1101.0,308.0 1101.9,308.0 1102.7,308.0 1103.6,308.0 1104.5,308.0 1105.4,308.0 1106.2,308.0 1107.1,308.0 1108.0,308.0 1108.8,308.0 1109.7,308.0 1110.6,308.0 1111.5,308.0 1112.3,308.0 1113.2,308.0 1114.1,308.0 1115.0,308.0 1115.8,308.0 1116.7,308.0 1117.6,308.0 1118.4,308.0 1119.3,308.0 1120.2,308.0 1121.1,308.0 1121.9,308.0 1122.8,308.0 1123.7,308.0 1124.5,308.0 1125.4,308.0 1126.3,308.0 1127.2,308.0 1128.0,308.0 1128.9,308.0 1129.8,308.0 1130.6,308.0 1131.5,308.0 1132.4,308.0 1133.3,308.0 1134.1,308.0 1135.0,308.0 1135.9,308.0 1136.8,308.0 1137.6,308.0 1138.5,308.0 1139.4,308.0 1140.2,308.0 1141.1,305.7 1142.0,308.0 1142.9,305.4 1143.7,308.0 1144.6,308.0 1145.5,308.0 1146.3,308.0 1147.2,305.1 1148.1,305.1 1149.0,304.3 1149.8,303.8 1150.7,303.8 1151.6,303.7 1152.5,303.7 1153.3,303.6 1154.2,303.6 1155.1,303.6 1155.9,303.6 1156.8,303.4 1157.7,303.8 1158.6,303.8 1159.4,303.6 1160.3,303.6 1161.2,303.6 1162.0,303.5 1162.9,303.5 1163.8,303.4 1164.7,303.4 1165.5,303.3 1166.4,303.3 1167.3,303.3 1168.2,303.3 1169.0,303.3 1169.9,303.3 1170.8,303.3 1171.6,303.3 1172.5,303.3 1173.4,303.2 1174.3,303.2 1175.1,303.1 1176.0,308.0 1176.0,308" fill="#ffd166" opacity="0.1" />
<polyline points="78.0,308.0 78.9,308.0 79.7,308.0 80.6,308.0 81.5,308.0 82.4,308.0 83.2,308.0 84.1,308.0 85.0,308.0 85.8,308.0 86.7,308.0 87.6,308.0 88.5,308.0 89.3,308.0 90.2,308.0 91.1,308.0 92.0,308.0 92.8,308.0 93.7,308.0 94.6,308.0 95.4,308.0 96.3,308.0 97.2,308.0 98.1,308.0 98.9,308.0 99.8,308.0 100.7,308.0 101.5,308.0 102.4,308.0 103.3,308.0 104.2,308.0 105.0,308.0 105.9,308.0 106.8,308.0 107.7,308.0 108.5,308.0 109.4,308.0 110.3,308.0 111.1,308.0 112.0,308.0 112.9,308.0 113.8,308.0 114.6,308.0 115.5,308.0 116.4,308.0 117.2,308.0 118.1,308.0 119.0,308.0 119.9,308.0 120.7,308.0 121.6,308.0 122.5,308.0 123.4,308.0 124.2,308.0 125.1,308.0 126.0,308.0 126.8,308.0 127.7,308.0 128.6,308.0 129.5,308.0 130.3,308.0 131.2,308.0 132.1,308.0 132.9,308.0 133.8,308.0 134.7,308.0 135.6,308.0 136.4,308.0 137.3,308.0 138.2,308.0 139.0,308.0 139.9,308.0 140.8,308.0 141.7,308.0 142.5,308.0 143.4,308.0 144.3,308.0 145.2,308.0 146.0,308.0 146.9,308.0 147.8,308.0 148.6,308.0 149.5,308.0 150.4,308.0 151.3,308.0 152.1,308.0 153.0,308.0 153.9,308.0 154.7,308.0 155.6,308.0 156.5,308.0 157.4,308.0 158.2,308.0 159.1,308.0 160.0,308.0 160.9,308.0 161.7,308.0 162.6,308.0 163.5,308.0 164.3,308.0 165.2,308.0 166.1,308.0 167.0,308.0 167.8,308.0 168.7,308.0 169.6,308.0 170.4,308.0 171.3,308.0 172.2,308.0 173.1,308.0 173.9,308.0 174.8,308.0 175.7,308.0 176.5,308.0 177.4,308.0 178.3,308.0 179.2,308.0 180.0,308.0 180.9,308.0 181.8,308.0 182.7,308.0 183.5,308.0 184.4,308.0 185.3,308.0 186.1,308.0 187.0,308.0 187.9,308.0 188.8,308.0 189.6,308.0 190.5,308.0 191.4,308.0 192.2,308.0 193.1,308.0 194.0,308.0 194.9,308.0 195.7,308.0 196.6,308.0 197.5,308.0 198.4,308.0 199.2,308.0 200.1,308.0 201.0,308.0 201.8,308.0 202.7,308.0 203.6,308.0 204.5,308.0 205.3,308.0 206.2,308.0 207.1,308.0 207.9,308.0 208.8,308.0 209.7,308.0 210.6,308.0 211.4,308.0 212.3,308.0 213.2,308.0 214.1,308.0 214.9,308.0 215.8,308.0 216.7,308.0 217.5,308.0 218.4,308.0 219.3,308.0 220.2,308.0 221.0,308.0 221.9,308.0 222.8,308.0 223.6,308.0 224.5,308.0 225.4,308.0 226.3,308.0 227.1,308.0 228.0,308.0 228.9,308.0 229.7,308.0 230.6,308.0 231.5,308.0 232.4,308.0 233.2,308.0 234.1,308.0 235.0,308.0 235.9,308.0 236.7,308.0 237.6,308.0 238.5,308.0 239.3,308.0 240.2,308.0 241.1,308.0 242.0,308.0 242.8,308.0 243.7,308.0 244.6,308.0 245.4,308.0 246.3,308.0 247.2,308.0 248.1,308.0 248.9,308.0 249.8,308.0 250.7,308.0 251.6,308.0 252.4,308.0 253.3,308.0 254.2,308.0 255.0,308.0 255.9,308.0 256.8,308.0 257.7,308.0 258.5,308.0 259.4,308.0 260.3,308.0 261.1,308.0 262.0,308.0 262.9,308.0 263.8,308.0 264.6,308.0 265.5,308.0 266.4,308.0 267.3,308.0 268.1,308.0 269.0,308.0 269.9,308.0 270.7,308.0 271.6,308.0 272.5,308.0 273.4,308.0 274.2,308.0 275.1,308.0 276.0,308.0 276.8,308.0 277.7,308.0 278.6,308.0 279.5,308.0 280.3,308.0 281.2,308.0 282.1,308.0 282.9,308.0 283.8,308.0 284.7,308.0 285.6,308.0 286.4,308.0 287.3,308.0 288.2,308.0 289.1,308.0 289.9,308.0 290.8,308.0 291.7,308.0 292.5,308.0 293.4,308.0 294.3,308.0 295.2,308.0 296.0,308.0 296.9,308.0 297.8,308.0 298.6,308.0 299.5,308.0 300.4,308.0 301.3,308.0 302.1,308.0 303.0,308.0 303.9,308.0 304.8,308.0 305.6,308.0 306.5,308.0 307.4,308.0 308.2,308.0 309.1,308.0 310.0,308.0 310.9,308.0 311.7,308.0 312.6,308.0 313.5,308.0 314.3,308.0 315.2,308.0 316.1,308.0 317.0,308.0 317.8,308.0 318.7,308.0 319.6,308.0 320.4,308.0 321.3,308.0 322.2,308.0 323.1,308.0 323.9,308.0 324.8,308.0 325.7,308.0 326.6,308.0 327.4,308.0 328.3,308.0 329.2,308.0 330.0,308.0 330.9,308.0 331.8,308.0 332.7,308.0 333.5,308.0 334.4,308.0 335.3,308.0 336.1,308.0 337.0,308.0 337.9,308.0 338.8,308.0 339.6,308.0 340.5,308.0 341.4,308.0 342.3,308.0 343.1,308.0 344.0,308.0 344.9,308.0 345.7,308.0 346.6,308.0 347.5,308.0 348.4,308.0 349.2,308.0 350.1,308.0 351.0,308.0 351.8,308.0 352.7,308.0 353.6,308.0 354.5,308.0 355.3,308.0 356.2,308.0 357.1,308.0 358.0,308.0 358.8,308.0 359.7,308.0 360.6,308.0 361.4,308.0 362.3,308.0 363.2,308.0 364.1,308.0 364.9,308.0 365.8,308.0 366.7,308.0 367.5,308.0 368.4,308.0 369.3,308.0 370.2,308.0 371.0,308.0 371.9,308.0 372.8,308.0 373.6,308.0 374.5,308.0 375.4,308.0 376.3,308.0 377.1,308.0 378.0,308.0 378.9,308.0 379.8,308.0 380.6,308.0 381.5,308.0 382.4,308.0 383.2,308.0 384.1,308.0 385.0,308.0 385.9,308.0 386.7,308.0 387.6,308.0 388.5,308.0 389.3,308.0 390.2,308.0 391.1,308.0 392.0,308.0 392.8,308.0 393.7,308.0 394.6,308.0 395.5,308.0 396.3,308.0 397.2,308.0 398.1,308.0 398.9,308.0 399.8,308.0 400.7,308.0 401.6,308.0 402.4,308.0 403.3,308.0 404.2,308.0 405.0,308.0 405.9,308.0 406.8,308.0 407.7,308.0 408.5,308.0 409.4,308.0 410.3,308.0 411.2,308.0 412.0,308.0 412.9,308.0 413.8,308.0 414.6,308.0 415.5,308.0 416.4,308.0 417.3,308.0 418.1,308.0 419.0,308.0 419.9,308.0 420.7,308.0 421.6,308.0 422.5,308.0 423.4,308.0 424.2,308.0 425.1,308.0 426.0,308.0 426.8,308.0 427.7,308.0 428.6,308.0 429.5,308.0 430.3,308.0 431.2,308.0 432.1,308.0 433.0,308.0 433.8,308.0 434.7,308.0 435.6,308.0 436.4,308.0 437.3,308.0 438.2,308.0 439.1,308.0 439.9,308.0 440.8,308.0 441.7,308.0 442.5,308.0 443.4,308.0 444.3,308.0 445.2,308.0 446.0,308.0 446.9,308.0 447.8,308.0 448.7,308.0 449.5,308.0 450.4,308.0 451.3,308.0 452.1,308.0 453.0,308.0 453.9,308.0 454.8,308.0 455.6,308.0 456.5,308.0 457.4,308.0 458.2,308.0 459.1,308.0 460.0,308.0 460.9,308.0 461.7,308.0 462.6,308.0 463.5,308.0 464.3,308.0 465.2,308.0 466.1,308.0 467.0,308.0 467.8,308.0 468.7,308.0 469.6,308.0 470.5,308.0 471.3,308.0 472.2,308.0 473.1,308.0 473.9,308.0 474.8,308.0 475.7,308.0 476.6,308.0 477.4,308.0 478.3,308.0 479.2,308.0 480.0,308.0 480.9,308.0 481.8,308.0 482.7,308.0 483.5,308.0 484.4,308.0 485.3,308.0 486.2,308.0 487.0,308.0 487.9,308.0 488.8,308.0 489.6,308.0 490.5,308.0 491.4,308.0 492.3,308.0 493.1,308.0 494.0,308.0 494.9,308.0 495.7,308.0 496.6,308.0 497.5,308.0 498.4,308.0 499.2,308.0 500.1,308.0 501.0,308.0 501.9,308.0 502.7,308.0 503.6,308.0 504.5,308.0 505.3,308.0 506.2,308.0 507.1,308.0 508.0,308.0 508.8,308.0 509.7,308.0 510.6,308.0 511.4,308.0 512.3,308.0 513.2,308.0 514.1,308.0 514.9,308.0 515.8,308.0 516.7,308.0 517.5,308.0 518.4,308.0 519.3,308.0 520.2,308.0 521.0,308.0 521.9,308.0 522.8,308.0 523.7,308.0 524.5,308.0 525.4,308.0 526.3,308.0 527.1,308.0 528.0,308.0 528.9,308.0 529.8,308.0 530.6,308.0 531.5,308.0 532.4,308.0 533.2,308.0 534.1,308.0 535.0,308.0 535.9,308.0 536.7,308.0 537.6,308.0 538.5,308.0 539.4,308.0 540.2,308.0 541.1,308.0 542.0,308.0 542.8,308.0 543.7,308.0 544.6,308.0 545.5,308.0 546.3,308.0 547.2,308.0 548.1,308.0 548.9,308.0 549.8,308.0 550.7,308.0 551.6,308.0 552.4,308.0 553.3,308.0 554.2,308.0 555.1,308.0 555.9,308.0 556.8,308.0 557.7,308.0 558.5,308.0 559.4,308.0 560.3,308.0 561.2,308.0 562.0,308.0 562.9,308.0 563.8,308.0 564.6,308.0 565.5,308.0 566.4,308.0 567.3,308.0 568.1,308.0 569.0,308.0 569.9,308.0 570.7,308.0 571.6,308.0 572.5,308.0 573.4,308.0 574.2,308.0 575.1,308.0 576.0,308.0 576.9,308.0 577.7,308.0 578.6,308.0 579.5,308.0 580.3,308.0 581.2,308.0 582.1,308.0 583.0,308.0 583.8,308.0 584.7,308.0 585.6,308.0 586.4,308.0 587.3,308.0 588.2,308.0 589.1,308.0 589.9,308.0 590.8,308.0 591.7,308.0 592.6,308.0 593.4,308.0 594.3,308.0 595.2,308.0 596.0,308.0 596.9,308.0 597.8,308.0 598.7,308.0 599.5,308.0 600.4,308.0 601.3,308.0 602.1,308.0 603.0,308.0 603.9,308.0 604.8,308.0 605.6,308.0 606.5,308.0 607.4,308.0 608.2,308.0 609.1,308.0 610.0,308.0 610.9,308.0 611.7,308.0 612.6,308.0 613.5,308.0 614.4,308.0 615.2,308.0 616.1,308.0 617.0,308.0 617.8,308.0 618.7,308.0 619.6,308.0 620.5,308.0 621.3,308.0 622.2,308.0 623.1,308.0 623.9,308.0 624.8,308.0 625.7,308.0 626.6,308.0 627.4,308.0 628.3,308.0 629.2,308.0 630.1,308.0 630.9,308.0 631.8,308.0 632.7,308.0 633.5,308.0 634.4,308.0 635.3,308.0 636.2,308.0 637.0,308.0 637.9,308.0 638.8,308.0 639.6,308.0 640.5,308.0 641.4,308.0 642.3,308.0 643.1,308.0 644.0,308.0 644.9,308.0 645.8,308.0 646.6,308.0 647.5,308.0 648.4,308.0 649.2,308.0 650.1,308.0 651.0,308.0 651.9,308.0 652.7,308.0 653.6,308.0 654.5,308.0 655.3,308.0 656.2,308.0 657.1,308.0 658.0,308.0 658.8,308.0 659.7,308.0 660.6,308.0 661.4,308.0 662.3,308.0 663.2,308.0 664.1,308.0 664.9,308.0 665.8,308.0 666.7,308.0 667.6,308.0 668.4,308.0 669.3,308.0 670.2,308.0 671.0,308.0 671.9,308.0 672.8,308.0 673.7,308.0 674.5,308.0 675.4,308.0 676.3,308.0 677.1,308.0 678.0,308.0 678.9,308.0 679.8,308.0 680.6,308.0 681.5,308.0 682.4,308.0 683.3,308.0 684.1,308.0 685.0,308.0 685.9,308.0 686.7,308.0 687.6,308.0 688.5,308.0 689.4,308.0 690.2,308.0 691.1,308.0 692.0,308.0 692.8,308.0 693.7,308.0 694.6,308.0 695.5,308.0 696.3,308.0 697.2,308.0 698.1,308.0 698.9,308.0 699.8,308.0 700.7,308.0 701.6,308.0 702.4,308.0 703.3,308.0 704.2,308.0 705.1,308.0 705.9,308.0 706.8,308.0 707.7,308.0 708.5,308.0 709.4,308.0 710.3,308.0 711.2,308.0 712.0,308.0 712.9,308.0 713.8,308.0 714.6,308.0 715.5,308.0 716.4,308.0 717.3,308.0 718.1,308.0 719.0,308.0 719.9,308.0 720.8,308.0 721.6,308.0 722.5,308.0 723.4,308.0 724.2,308.0 725.1,308.0 726.0,308.0 726.9,308.0 727.7,308.0 728.6,308.0 729.5,308.0 730.3,308.0 731.2,308.0 732.1,308.0 733.0,308.0 733.8,308.0 734.7,308.0 735.6,308.0 736.5,308.0 737.3,308.0 738.2,308.0 739.1,308.0 739.9,308.0 740.8,308.0 741.7,308.0 742.6,308.0 743.4,308.0 744.3,308.0 745.2,308.0 746.0,308.0 746.9,308.0 747.8,308.0 748.7,308.0 749.5,308.0 750.4,308.0 751.3,308.0 752.1,308.0 753.0,308.0 753.9,308.0 754.8,308.0 755.6,308.0 756.5,308.0 757.4,308.0 758.3,308.0 759.1,308.0 760.0,308.0 760.9,308.0 761.7,308.0 762.6,308.0 763.5,308.0 764.4,308.0 765.2,308.0 766.1,308.0 767.0,308.0 767.8,308.0 768.7,308.0 769.6,308.0 770.5,308.0 771.3,308.0 772.2,308.0 773.1,308.0 774.0,308.0 774.8,308.0 775.7,308.0 776.6,308.0 777.4,308.0 778.3,308.0 779.2,308.0 780.1,308.0 780.9,308.0 781.8,308.0 782.7,308.0 783.5,308.0 784.4,308.0 785.3,308.0 786.2,308.0 787.0,308.0 787.9,308.0 788.8,308.0 789.7,308.0 790.5,308.0 791.4,308.0 792.3,308.0 793.1,308.0 794.0,308.0 794.9,308.0 795.8,308.0 796.6,308.0 797.5,308.0 798.4,308.0 799.2,308.0 800.1,308.0 801.0,308.0 801.9,308.0 802.7,308.0 803.6,308.0 804.5,308.0 805.3,308.0 806.2,308.0 807.1,308.0 808.0,308.0 808.8,308.0 809.7,308.0 810.6,308.0 811.5,308.0 812.3,308.0 813.2,308.0 814.1,308.0 814.9,308.0 815.8,308.0 816.7,308.0 817.6,308.0 818.4,308.0 819.3,308.0 820.2,308.0 821.0,308.0 821.9,308.0 822.8,308.0 823.7,308.0 824.5,308.0 825.4,308.0 826.3,308.0 827.2,308.0 828.0,308.0 828.9,308.0 829.8,308.0 830.6,308.0 831.5,308.0 832.4,308.0 833.3,308.0 834.1,308.0 835.0,308.0 835.9,308.0 836.7,308.0 837.6,308.0 838.5,308.0 839.4,308.0 840.2,308.0 841.1,308.0 842.0,308.0 842.8,308.0 843.7,308.0 844.6,308.0 845.5,308.0 846.3,308.0 847.2,308.0 848.1,308.0 849.0,308.0 849.8,308.0 850.7,308.0 851.6,308.0 852.4,308.0 853.3,308.0 854.2,308.0 855.1,308.0 855.9,308.0 856.8,308.0 857.7,308.0 858.5,308.0 859.4,308.0 860.3,308.0 861.2,308.0 862.0,308.0 862.9,308.0 863.8,308.0 864.7,308.0 865.5,308.0 866.4,308.0 867.3,308.0 868.1,308.0 869.0,308.0 869.9,308.0 870.8,308.0 871.6,308.0 872.5,308.0 873.4,308.0 874.2,308.0 875.1,308.0 876.0,308.0 876.9,308.0 877.7,308.0 878.6,308.0 879.5,308.0 880.4,308.0 881.2,308.0 882.1,308.0 883.0,308.0 883.8,308.0 884.7,308.0 885.6,308.0 886.5,308.0 887.3,308.0 888.2,308.0 889.1,308.0 889.9,308.0 890.8,308.0 891.7,308.0 892.6,308.0 893.4,308.0 894.3,308.0 895.2,308.0 896.0,308.0 896.9,308.0 897.8,308.0 898.7,308.0 899.5,308.0 900.4,308.0 901.3,308.0 902.2,308.0 903.0,308.0 903.9,308.0 904.8,308.0 905.6,308.0 906.5,308.0 907.4,308.0 908.3,308.0 909.1,308.0 910.0,308.0 910.9,308.0 911.7,308.0 912.6,308.0 913.5,308.0 914.4,308.0 915.2,308.0 916.1,308.0 917.0,308.0 917.9,308.0 918.7,308.0 919.6,308.0 920.5,308.0 921.3,308.0 922.2,308.0 923.1,308.0 924.0,308.0 924.8,308.0 925.7,308.0 926.6,308.0 927.4,308.0 928.3,308.0 929.2,308.0 930.1,308.0 930.9,308.0 931.8,308.0 932.7,308.0 933.6,308.0 934.4,308.0 935.3,308.0 936.2,308.0 937.0,308.0 937.9,308.0 938.8,308.0 939.7,308.0 940.5,308.0 941.4,308.0 942.3,308.0 943.1,308.0 944.0,308.0 944.9,308.0 945.8,308.0 946.6,308.0 947.5,308.0 948.4,308.0 949.2,308.0 950.1,308.0 951.0,308.0 951.9,308.0 952.7,308.0 953.6,308.0 954.5,308.0 955.4,308.0 956.2,308.0 957.1,308.0 958.0,308.0 958.8,308.0 959.7,308.0 960.6,308.0 961.5,308.0 962.3,308.0 963.2,308.0 964.1,308.0 964.9,308.0 965.8,308.0 966.7,308.0 967.6,308.0 968.4,308.0 969.3,308.0 970.2,308.0 971.1,308.0 971.9,308.0 972.8,308.0 973.7,308.0 974.5,308.0 975.4,308.0 976.3,308.0 977.2,308.0 978.0,308.0 978.9,308.0 979.8,308.0 980.6,308.0 981.5,308.0 982.4,308.0 983.3,308.0 984.1,308.0 985.0,308.0 985.9,308.0 986.7,308.0 987.6,308.0 988.5,308.0 989.4,308.0 990.2,308.0 991.1,308.0 992.0,308.0 992.9,308.0 993.7,308.0 994.6,308.0 995.5,308.0 996.3,308.0 997.2,308.0 998.1,308.0 999.0,308.0 999.8,308.0 1000.7,308.0 1001.6,308.0 1002.4,308.0 1003.3,308.0 1004.2,308.0 1005.1,308.0 1005.9,308.0 1006.8,308.0 1007.7,308.0 1008.6,308.0 1009.4,308.0 1010.3,308.0 1011.2,308.0 1012.0,308.0 1012.9,308.0 1013.8,308.0 1014.7,308.0 1015.5,308.0 1016.4,308.0 1017.3,308.0 1018.1,308.0 1019.0,308.0 1019.9,308.0 1020.8,308.0 1021.6,308.0 1022.5,308.0 1023.4,308.0 1024.3,308.0 1025.1,308.0 1026.0,308.0 1026.9,308.0 1027.7,308.0 1028.6,308.0 1029.5,308.0 1030.4,308.0 1031.2,308.0 1032.1,307.9 1033.0,307.9 1033.8,307.9 1034.7,307.8 1035.6,307.8 1036.5,307.6 1037.3,307.4 1038.2,308.0 1039.1,307.3 1039.9,307.3 1040.8,308.0 1041.7,308.0 1042.6,308.0 1043.4,308.0 1044.3,308.0 1045.2,308.0 1046.1,308.0 1046.9,308.0 1047.8,308.0 1048.7,308.0 1049.5,307.3 1050.4,307.3 1051.3,308.0 1052.2,308.0 1053.0,307.1 1053.9,308.0 1054.8,308.0 1055.6,308.0 1056.5,308.0 1057.4,308.0 1058.3,308.0 1059.1,308.0 1060.0,308.0 1060.9,308.0 1061.8,308.0 1062.6,308.0 1063.5,308.0 1064.4,308.0 1065.2,308.0 1066.1,308.0 1067.0,308.0 1067.9,308.0 1068.7,308.0 1069.6,308.0 1070.5,308.0 1071.3,308.0 1072.2,308.0 1073.1,308.0 1074.0,308.0 1074.8,308.0 1075.7,308.0 1076.6,308.0 1077.5,308.0 1078.3,308.0 1079.2,308.0 1080.1,308.0 1080.9,308.0 1081.8,308.0 1082.7,308.0 1083.6,308.0 1084.4,308.0 1085.3,308.0 1086.2,308.0 1087.0,308.0 1087.9,308.0 1088.8,308.0 1089.7,308.0 1090.5,308.0 1091.4,308.0 1092.3,308.0 1093.1,308.0 1094.0,308.0 1094.9,308.0 1095.8,308.0 1096.6,308.0 1097.5,308.0 1098.4,308.0 1099.3,308.0 1100.1,308.0 1101.0,308.0 1101.9,308.0 1102.7,308.0 1103.6,308.0 1104.5,308.0 1105.4,308.0 1106.2,308.0 1107.1,308.0 1108.0,308.0 1108.8,308.0 1109.7,308.0 1110.6,308.0 1111.5,308.0 1112.3,308.0 1113.2,308.0 1114.1,308.0 1115.0,308.0 1115.8,308.0 1116.7,308.0 1117.6,308.0 1118.4,308.0 1119.3,308.0 1120.2,308.0 1121.1,308.0 1121.9,308.0 1122.8,308.0 1123.7,308.0 1124.5,308.0 1125.4,308.0 1126.3,308.0 1127.2,308.0 1128.0,308.0 1128.9,308.0 1129.8,308.0 1130.6,308.0 1131.5,308.0 1132.4,308.0 1133.3,308.0 1134.1,308.0 1135.0,308.0 1135.9,308.0 1136.8,308.0 1137.6,308.0 1138.5,308.0 1139.4,308.0 1140.2,308.0 1141.1,305.7 1142.0,308.0 1142.9,305.4 1143.7,308.0 1144.6,308.0 1145.5,308.0 1146.3,308.0 1147.2,305.1 1148.1,305.1 1149.0,304.3 1149.8,303.8 1150.7,303.8 1151.6,303.7 1152.5,303.7 1153.3,303.6 1154.2,303.6 1155.1,303.6 1155.9,303.6 1156.8,303.4 1157.7,303.8 1158.6,303.8 1159.4,303.6 1160.3,303.6 1161.2,303.6 1162.0,303.5 1162.9,303.5 1163.8,303.4 1164.7,303.4 1165.5,303.3 1166.4,303.3 1167.3,303.3 1168.2,303.3 1169.0,303.3 1169.9,303.3 1170.8,303.3 1171.6,303.3 1172.5,303.3 1173.4,303.2 1174.3,303.2 1175.1,303.1 1176.0,308.0" fill="none" stroke="#ffd166" stroke-width="3" stroke-linecap="round" stroke-linejoin="round" />
</svg>
